<svg width="640" height="420" viewBox="0 0 640 420" fill="none" xmlns="http://www.w3.org/2000/svg">
<g clip-path="url(#clip0_881_3343)">
<path d="M640 0H0V420H640V0Z" fill="url(#paint0_radial_881_3343)"/>
<path d="M450.427 105.428C449.727 105.428 449.027 105.128 448.627 104.528C447.827 103.528 448.027 102.128 449.027 101.328L465.227 88.9282C466.227 88.1282 467.627 88.3282 468.427 89.3282C469.227 90.3282 469.027 91.7282 468.027 92.5282L451.827 104.928C451.427 105.228 450.927 105.428 450.427 105.428Z" fill="white"/>
<path d="M430.028 97.8278C428.928 97.8278 427.928 97.0278 427.728 95.8278L425.028 75.6278C424.828 74.3278 425.728 73.2278 427.028 73.0278C428.228 72.8278 429.428 73.7278 429.628 75.0278L432.328 95.2278C432.528 96.5278 431.628 97.6278 430.328 97.8278C430.228 97.8278 430.128 97.8278 430.028 97.8278Z" fill="white"/>
<path d="M471.727 131.728C471.427 131.728 471.127 131.628 470.827 131.528L452.727 124.028C451.527 123.528 451.027 122.228 451.527 121.028C452.027 119.828 453.327 119.328 454.527 119.828L472.627 127.328C473.827 127.828 474.327 129.128 473.827 130.328C473.527 131.228 472.627 131.728 471.727 131.728Z" fill="white"/>
<path d="M318 286.2C316.9 286.2 315.7 286.1 314.6 286L314.8 284C315.9 284.1 317 284.2 318.1 284.2L318 286.2ZM323.4 286.2L323.3 284.2C324.4 284.2 325.5 284.1 326.6 284L326.8 286C325.7 286.1 324.6 286.1 323.4 286.2ZM309.1 285.4C308 285.2 306.8 285 305.7 284.8L306.1 282.8C307.2 283 308.3 283.2 309.4 283.4L309.1 285.4ZM332.3 285.3L332 283.3C333.1 283.1 334.2 282.9 335.3 282.7L335.7 284.7C334.6 285 333.4 285.2 332.3 285.3ZM300.4 283.5C299.3 283.2 298.2 282.9 297.1 282.5L297.7 280.6C298.8 280.9 299.8 281.3 300.9 281.6L300.4 283.5ZM341 283.5L340.5 281.6C341.6 281.3 342.6 281 343.7 280.6L344.3 282.5C343.2 282.8 342.1 283.2 341 283.5ZM291.9 280.7C290.8 280.3 289.8 279.8 288.8 279.3L289.6 277.5C290.6 278 291.6 278.4 292.7 278.8L291.9 280.7ZM349.5 280.6L348.7 278.7C349.7 278.3 350.8 277.8 351.8 277.4L352.6 279.2C351.6 279.7 350.5 280.1 349.5 280.6ZM283.9 276.9C282.9 276.4 281.9 275.8 280.9 275.2L281.9 273.5C282.8 274.1 283.8 274.6 284.8 275.2L283.9 276.9ZM357.5 276.7L356.5 274.9C357.5 274.4 358.4 273.8 359.4 273.2L360.4 274.9C359.5 275.6 358.5 276.2 357.5 276.7ZM276.3 272.2C275.4 271.5 274.4 270.9 273.5 270.2L274.7 268.6C275.6 269.3 276.5 269.9 277.4 270.6L276.3 272.2ZM365.1 272L363.9 270.4C364.8 269.8 365.7 269.1 366.6 268.4L367.8 270C366.9 270.6 366 271.3 365.1 272ZM269.4 266.6C268.6 265.8 267.7 265 266.9 264.3L268.3 262.9C269.1 263.7 269.9 264.4 270.7 265.2L269.4 266.6ZM372 266.4L370.7 264.9C371.5 264.1 372.3 263.4 373.1 262.6L374.5 264C373.7 264.8 372.9 265.6 372 266.4ZM263.1 260.3C262.3 259.4 261.6 258.6 260.9 257.7L262.5 256.4C263.2 257.3 263.9 258.1 264.7 259L263.1 260.3ZM378.3 260L376.8 258.7C377.5 257.9 378.3 257 378.9 256.1L380.5 257.3C379.8 258.3 379 259.2 378.3 260ZM257.6 253.3C256.9 252.4 256.3 251.4 255.7 250.4L257.4 249.3C258 250.2 258.6 251.2 259.2 252.1L257.6 253.3ZM383.7 253L382.1 251.9C382.7 251 383.3 250 383.9 249.1L385.6 250.2C385 251.1 384.4 252.1 383.7 253ZM252.9 245.6C252.4 244.6 251.8 243.5 251.4 242.5L253.2 241.6C253.7 242.6 254.2 243.6 254.7 244.6L252.9 245.6ZM388.4 245.4L386.6 244.5C387.1 243.5 387.6 242.5 388.1 241.5L389.9 242.4C389.4 243.4 388.9 244.4 388.4 245.4ZM249.2 237.5C248.8 236.4 248.4 235.3 248 234.3L249.9 233.7C250.3 234.7 250.6 235.8 251.1 236.8L249.2 237.5ZM392.1 237.3L390.2 236.6C390.6 235.6 391 234.5 391.3 233.5L393.2 234.1C392.9 235.2 392.5 236.2 392.1 237.3ZM246.4 229.1C246.1 228 245.8 226.9 245.6 225.8L247.6 225.4C247.8 226.5 248.1 227.6 248.4 228.6L246.4 229.1ZM394.8 228.8L392.9 228.3C393.2 227.2 393.4 226.1 393.7 225L395.7 225.4C395.3 226.6 395.1 227.7 394.8 228.8ZM244.7 220.3C244.5 219.2 244.4 218 244.3 216.9L246.3 216.7C246.4 217.8 246.5 218.9 246.7 220L244.7 220.3ZM396.5 220.1L394.5 219.8C394.7 218.7 394.8 217.6 394.9 216.5L396.9 216.7C396.8 217.8 396.7 218.9 396.5 220.1ZM244 211.5C244 210.9 244 210.3 244 209.6C244 209.1 244 208.6 244 208.1L245 208L246 208.1C246 208.6 246 209.1 246 209.6C246 210.2 246 210.8 246 211.4L244 211.5ZM397.2 211.2H395.2V211C395.2 210.5 395.2 210 395.2 209.5C395.2 208.9 395.2 208.2 395.2 207.6H397.2C397.2 208.2 397.2 208.9 397.2 209.5C397.2 210 397.2 210.5 397.2 211V211.2ZM246.2 202.7L244.2 202.5C244.3 201.4 244.4 200.2 244.6 199.1L246.6 199.4C246.5 200.5 246.3 201.6 246.2 202.7ZM394.9 202.3C394.8 201.2 394.7 200.1 394.5 199L396.5 198.7C396.7 199.8 396.8 201 396.9 202.1L394.9 202.3ZM247.5 194.1L245.5 193.7C245.7 192.6 246 191.5 246.3 190.4L248.2 190.9C248 192 247.8 193.1 247.5 194.1ZM393.6 193.8C393.4 192.7 393.1 191.6 392.8 190.6L394.7 190.1C395 191.2 395.3 192.3 395.5 193.4L393.6 193.8ZM249.8 185.8L247.9 185.2C248.3 184.1 248.7 183 249.1 182L251 182.7C250.5 183.7 250.2 184.7 249.8 185.8ZM391.2 185.4C390.8 184.4 390.5 183.3 390 182.3L391.9 181.6C392.3 182.7 392.7 183.8 393.1 184.8L391.2 185.4ZM253 177.7L251.2 176.8C251.7 175.8 252.2 174.8 252.7 173.7L254.5 174.6C254 175.7 253.5 176.7 253 177.7ZM387.9 177.3C387.4 176.3 386.9 175.3 386.4 174.3L388.2 173.4C388.7 174.4 389.3 175.4 389.8 176.5L387.9 177.3ZM257.2 170.1L255.5 169C256.1 168 256.7 167.1 257.4 166.1L259 167.2C258.4 168.3 257.8 169.2 257.2 170.1ZM383.7 169.8C383.1 168.9 382.5 167.9 381.9 167L383.5 165.9C384.2 166.8 384.8 167.8 385.4 168.8L383.7 169.8ZM262.2 163L260.6 161.8C261.3 160.9 262.1 160 262.8 159.2L264.3 160.5C263.6 161.3 262.9 162.2 262.2 163ZM378.7 162.7C378 161.8 377.3 161 376.5 160.1L378 158.8C378.8 159.6 379.5 160.5 380.2 161.4L378.7 162.7ZM268 156.6L266.6 155.2C267.4 154.4 268.2 153.6 269.1 152.8L270.4 154.3C269.6 155 268.8 155.8 268 156.6ZM372.8 156.3C372 155.5 371.2 154.8 370.4 154L371.7 152.5C372.6 153.3 373.4 154.1 374.2 154.8L372.8 156.3ZM274.5 150.8L273.3 149.2C274.2 148.5 275.1 147.8 276 147.1L277.2 148.7C276.3 149.5 275.4 150.1 274.5 150.8ZM366.3 150.6C365.4 149.9 364.5 149.3 363.6 148.6L364.8 147C365.7 147.7 366.7 148.3 367.6 149L366.3 150.6ZM281.6 145.9L280.6 144.2C281.6 143.6 282.6 143 283.6 142.5L284.6 144.3C283.6 144.7 282.6 145.3 281.6 145.9ZM359.1 145.6C358.1 145 357.2 144.5 356.2 143.9L357.2 142.1C358.2 142.6 359.2 143.2 360.2 143.8L359.1 145.6ZM289.3 141.8L288.5 140C289.5 139.5 290.6 139.1 291.6 138.6L292.4 140.5C291.3 140.9 290.3 141.3 289.3 141.8ZM351.5 141.6C350.5 141.1 349.5 140.7 348.4 140.3L349.1 138.4C350.1 138.8 351.2 139.3 352.2 139.7L351.5 141.6ZM297.4 138.6L296.8 136.7C297.9 136.3 299 136 300.1 135.7L300.6 137.6C299.5 137.9 298.4 138.3 297.4 138.6ZM343.4 138.5C342.3 138.2 341.3 137.8 340.2 137.6L340.7 135.7C341.8 136 342.9 136.3 344 136.7L343.4 138.5ZM305.8 136.4L305.4 134.4C306.5 134.2 307.6 134 308.8 133.8L309.1 135.8C308 136 306.9 136.2 305.8 136.4ZM335 136.3C333.9 136.1 332.8 135.9 331.7 135.7L332 133.7C333.1 133.9 334.3 134.1 335.4 134.3L335 136.3ZM314.4 135.2L314.2 133.2C315.3 133.1 316.5 133 317.6 133L317.7 135C316.6 135 315.5 135.1 314.4 135.2ZM326.4 135.2C325.3 135.1 324.2 135.1 323.1 135L323.2 133C324.3 133 325.5 133.1 326.6 133.2L326.4 135.2Z" fill="#DEA700" fill-opacity="0.2"/>
<path d="M318.608 254C318.02 254 317.377 253.946 316.789 253.893L316.896 252.822C317.484 252.876 318.073 252.93 318.662 252.93L318.608 254ZM321.499 254L321.445 252.93C322.034 252.93 322.623 252.876 323.211 252.822L323.319 253.893C322.73 253.946 322.141 253.946 321.499 254ZM313.845 253.572C313.256 253.465 312.614 253.358 312.025 253.251L312.239 252.18C312.828 252.287 313.416 252.394 314.005 252.501L313.845 253.572ZM326.262 253.518L326.102 252.448C326.691 252.341 327.279 252.234 327.868 252.127L328.082 253.197C327.493 253.358 326.851 253.465 326.262 253.518ZM309.188 252.555C308.599 252.394 308.01 252.234 307.422 252.02L307.743 251.003C308.332 251.163 308.867 251.377 309.456 251.538L309.188 252.555ZM330.919 252.555L330.651 251.538C331.24 251.377 331.775 251.217 332.364 251.003L332.685 252.02C332.097 252.18 331.508 252.394 330.919 252.555ZM304.638 251.056C304.05 250.842 303.514 250.574 302.979 250.307L303.407 249.343C303.943 249.611 304.478 249.825 305.067 250.039L304.638 251.056ZM335.469 251.003L335.04 249.986C335.576 249.772 336.164 249.504 336.7 249.29L337.128 250.253C336.593 250.521 336.004 250.735 335.469 251.003ZM300.356 249.022C299.821 248.755 299.286 248.433 298.751 248.112L299.286 247.202C299.768 247.523 300.303 247.791 300.838 248.112L300.356 249.022ZM339.751 248.915L339.215 247.952C339.751 247.684 340.232 247.363 340.768 247.042L341.303 247.952C340.821 248.326 340.286 248.648 339.751 248.915ZM296.289 246.507C295.807 246.132 295.272 245.811 294.79 245.436L295.432 244.58C295.914 244.954 296.396 245.275 296.877 245.65L296.289 246.507ZM343.819 246.399L343.176 245.543C343.658 245.222 344.14 244.847 344.621 244.473L345.264 245.329C344.782 245.65 344.3 246.025 343.819 246.399ZM292.595 243.509C292.167 243.081 291.685 242.653 291.257 242.278L292.007 241.529C292.435 241.957 292.863 242.332 293.291 242.76L292.595 243.509ZM347.512 243.402L346.816 242.599C347.244 242.171 347.672 241.796 348.101 241.368L348.85 242.117C348.422 242.546 347.993 242.974 347.512 243.402ZM289.223 240.137C288.795 239.655 288.42 239.227 288.046 238.745L288.902 238.05C289.277 238.531 289.651 238.96 290.08 239.441L289.223 240.137ZM350.884 239.977L350.081 239.281C350.456 238.852 350.884 238.371 351.205 237.889L352.061 238.531C351.687 239.067 351.258 239.548 350.884 239.977ZM286.279 236.39C285.905 235.909 285.584 235.373 285.262 234.838L286.172 234.249C286.493 234.731 286.815 235.266 287.136 235.748L286.279 236.39ZM353.774 236.23L352.918 235.641C353.239 235.159 353.56 234.624 353.881 234.142L354.791 234.731C354.47 235.213 354.149 235.748 353.774 236.23ZM283.764 232.269C283.496 231.734 283.175 231.145 282.961 230.61L283.924 230.128C284.192 230.663 284.46 231.198 284.727 231.734L283.764 232.269ZM356.29 232.162L355.326 231.68C355.594 231.145 355.862 230.61 356.129 230.074L357.093 230.556C356.825 231.091 356.557 231.627 356.29 232.162ZM281.783 227.933C281.569 227.345 281.355 226.756 281.141 226.221L282.158 225.899C282.372 226.435 282.533 227.023 282.8 227.559L281.783 227.933ZM358.27 227.826L357.253 227.452C357.467 226.916 357.681 226.328 357.842 225.792L358.859 226.114C358.698 226.702 358.484 227.238 358.27 227.826ZM280.285 223.437C280.124 222.849 279.963 222.26 279.856 221.671L280.927 221.457C281.034 222.046 281.195 222.634 281.355 223.17L280.285 223.437ZM359.715 223.277L358.698 223.009C358.859 222.42 358.966 221.832 359.127 221.243L360.197 221.457C359.983 222.099 359.876 222.688 359.715 223.277ZM279.375 218.727C279.268 218.138 279.214 217.496 279.161 216.907L280.231 216.8C280.285 217.389 280.338 217.978 280.445 218.567L279.375 218.727ZM360.625 218.62L359.555 218.46C359.662 217.871 359.715 217.282 359.769 216.693L360.839 216.8C360.786 217.389 360.732 217.978 360.625 218.62ZM279 214.017C279 213.696 279 213.375 279 213C279 212.732 279 212.465 279 212.197L279.535 212.144L280.07 212.197C280.07 212.465 280.07 212.732 280.07 213C280.07 213.321 280.07 213.642 280.07 213.963L279 214.017ZM361 213.856H359.93V213.749C359.93 213.482 359.93 213.214 359.93 212.946C359.93 212.625 359.93 212.251 359.93 211.93H361C361 212.251 361 212.625 361 212.946C361 213.214 361 213.482 361 213.749V213.856ZM280.178 209.307L279.107 209.2C279.161 208.611 279.214 207.969 279.321 207.38L280.392 207.54C280.338 208.129 280.231 208.718 280.178 209.307ZM359.769 209.093C359.715 208.504 359.662 207.915 359.555 207.326L360.625 207.166C360.732 207.755 360.786 208.397 360.839 208.986L359.769 209.093ZM280.873 204.704L279.803 204.49C279.91 203.901 280.07 203.312 280.231 202.723L281.248 202.991C281.141 203.58 281.034 204.168 280.873 204.704ZM359.073 204.543C358.966 203.954 358.805 203.366 358.645 202.83L359.662 202.563C359.822 203.151 359.983 203.74 360.09 204.329L359.073 204.543ZM282.104 200.261L281.087 199.94C281.302 199.351 281.516 198.762 281.73 198.227L282.747 198.602C282.479 199.137 282.319 199.672 282.104 200.261ZM357.789 200.047C357.574 199.512 357.414 198.923 357.146 198.388L358.163 198.013C358.377 198.602 358.591 199.191 358.805 199.726L357.789 200.047ZM283.817 195.926L282.854 195.444C283.121 194.909 283.389 194.373 283.657 193.785L284.62 194.266C284.352 194.855 284.085 195.39 283.817 195.926ZM356.022 195.711C355.755 195.176 355.487 194.641 355.219 194.106L356.183 193.624C356.45 194.159 356.772 194.695 357.039 195.283L356.022 195.711ZM286.065 191.858L285.155 191.269C285.477 190.734 285.798 190.252 286.172 189.717L287.029 190.305C286.708 190.894 286.386 191.376 286.065 191.858ZM353.774 191.697C353.453 191.215 353.132 190.68 352.811 190.198L353.667 189.61C354.042 190.091 354.363 190.627 354.684 191.162L353.774 191.697ZM288.742 188.057L287.885 187.415C288.26 186.933 288.688 186.452 289.063 186.024L289.866 186.719C289.491 187.148 289.116 187.629 288.742 188.057ZM351.098 187.897C350.723 187.415 350.349 186.987 349.92 186.505L350.723 185.809C351.151 186.238 351.526 186.719 351.901 187.201L351.098 187.897ZM291.846 184.632L291.097 183.883C291.525 183.454 291.953 183.026 292.435 182.598L293.131 183.401C292.702 183.775 292.274 184.204 291.846 184.632ZM347.94 184.471C347.512 184.043 347.084 183.668 346.655 183.24L347.351 182.437C347.833 182.866 348.261 183.294 348.689 183.668L347.94 184.471ZM295.325 181.527L294.683 180.671C295.164 180.296 295.646 179.922 296.128 179.547L296.77 180.403C296.289 180.832 295.807 181.153 295.325 181.527ZM344.461 181.42C343.979 181.046 343.497 180.725 343.016 180.35L343.658 179.493C344.14 179.868 344.675 180.189 345.157 180.564L344.461 181.42ZM299.125 178.905L298.59 177.995C299.125 177.674 299.661 177.352 300.196 177.085L300.731 178.048C300.196 178.262 299.661 178.584 299.125 178.905ZM340.607 178.744C340.072 178.423 339.59 178.155 339.055 177.834L339.59 176.871C340.125 177.138 340.661 177.46 341.196 177.781L340.607 178.744ZM303.247 176.71L302.819 175.747C303.354 175.479 303.943 175.265 304.478 174.997L304.906 176.014C304.317 176.228 303.782 176.443 303.247 176.71ZM336.539 176.603C336.004 176.336 335.469 176.121 334.88 175.907L335.255 174.89C335.79 175.104 336.379 175.372 336.914 175.586L336.539 176.603ZM307.582 174.997L307.261 173.98C307.85 173.766 308.439 173.606 309.027 173.445L309.295 174.462C308.706 174.623 308.117 174.837 307.582 174.997ZM332.204 174.944C331.615 174.783 331.08 174.569 330.491 174.462L330.758 173.445C331.347 173.606 331.936 173.766 332.525 173.98L332.204 174.944ZM312.078 173.82L311.864 172.749C312.453 172.642 313.042 172.535 313.684 172.428L313.845 173.499C313.256 173.606 312.667 173.713 312.078 173.82ZM327.708 173.766C327.119 173.659 326.53 173.552 325.941 173.445L326.102 172.375C326.691 172.482 327.333 172.589 327.922 172.696L327.708 173.766ZM316.681 173.178L316.574 172.107C317.163 172.054 317.805 172 318.394 172L318.448 173.07C317.859 173.07 317.27 173.124 316.681 173.178ZM323.104 173.178C322.516 173.124 321.927 173.124 321.338 173.07L321.392 172C321.98 172 322.623 172.054 323.211 172.107L323.104 173.178Z" fill="#DEA700" fill-opacity="0.05"/>
<path d="M317.47 314C315.976 314 314.347 313.864 312.854 313.728L313.125 311.013C314.619 311.149 316.112 311.285 317.606 311.285L317.47 314ZM324.802 314L324.666 311.285C326.159 311.285 327.653 311.149 329.146 311.013L329.418 313.728C327.924 313.864 326.431 313.864 324.802 314ZM305.386 312.914C303.893 312.642 302.264 312.371 300.77 312.099L301.313 309.384C302.807 309.655 304.3 309.927 305.794 310.198L305.386 312.914ZM336.885 312.778L336.478 310.063C337.971 309.791 339.465 309.52 340.958 309.248L341.501 311.963C340.008 312.371 338.379 312.642 336.885 312.778ZM293.574 310.334C292.081 309.927 290.587 309.52 289.094 308.977L289.909 306.397C291.402 306.804 292.76 307.347 294.253 307.755L293.574 310.334ZM348.697 310.334L348.018 307.755C349.512 307.347 350.869 306.94 352.363 306.397L353.178 308.977C351.684 309.384 350.191 309.927 348.697 310.334ZM282.034 306.533C280.54 305.99 279.183 305.311 277.825 304.632L278.911 302.188C280.269 302.867 281.627 303.41 283.12 303.953L282.034 306.533ZM360.238 306.397L359.151 303.817C360.509 303.274 362.003 302.595 363.36 302.052L364.446 304.496C363.089 305.175 361.595 305.718 360.238 306.397ZM271.172 301.373C269.815 300.695 268.457 299.88 267.099 299.065L268.457 296.757C269.679 297.572 271.037 298.251 272.394 299.065L271.172 301.373ZM371.099 301.102L369.742 298.658C371.099 297.979 372.321 297.164 373.679 296.35L375.037 298.658C373.815 299.608 372.457 300.423 371.099 301.102ZM260.854 294.992C259.632 294.042 258.274 293.227 257.052 292.277L258.681 290.104C259.903 291.055 261.125 291.869 262.347 292.82L260.854 294.992ZM381.418 294.721L379.788 292.548C381.01 291.734 382.232 290.783 383.454 289.833L385.084 292.005C383.862 292.82 382.64 293.77 381.418 294.721ZM251.486 287.389C250.399 286.303 249.178 285.217 248.091 284.266L249.992 282.366C251.078 283.452 252.165 284.402 253.251 285.488L251.486 287.389ZM390.786 287.118L389.021 285.081C390.107 283.995 391.193 283.044 392.279 281.958L394.18 283.859C393.094 284.945 392.008 286.031 390.786 287.118ZM242.932 278.836C241.846 277.614 240.896 276.527 239.945 275.305L242.117 273.54C243.068 274.762 244.018 275.849 245.104 277.07L242.932 278.836ZM399.339 278.428L397.303 276.663C398.253 275.577 399.339 274.355 400.154 273.133L402.326 274.762C401.376 276.12 400.29 277.342 399.339 278.428ZM235.465 269.332C234.514 268.11 233.7 266.752 232.885 265.394L235.193 263.901C236.008 265.123 236.822 266.48 237.637 267.702L235.465 269.332ZM406.671 268.924L404.499 267.431C405.313 266.209 406.128 264.851 406.943 263.629L409.251 265.123C408.436 266.345 407.621 267.702 406.671 268.924ZM229.084 258.877C228.405 257.52 227.59 256.026 227.047 254.668L229.491 253.446C230.17 254.804 230.849 256.162 231.527 257.52L229.084 258.877ZM413.052 258.606L410.608 257.384C411.287 256.026 411.966 254.668 412.645 253.311L415.089 254.533C414.41 255.89 413.731 257.248 413.052 258.606ZM224.06 247.88C223.517 246.386 222.974 244.893 222.431 243.535L225.01 242.721C225.554 244.078 225.961 245.572 226.64 246.93L224.06 247.88ZM418.076 247.608L415.496 246.658C416.039 245.3 416.582 243.807 416.99 242.449L419.569 243.264C419.162 244.757 418.619 246.115 418.076 247.608ZM220.258 236.475C219.851 234.982 219.444 233.488 219.172 231.995L221.888 231.452C222.159 232.945 222.567 234.439 222.974 235.796L220.258 236.475ZM421.741 236.068L419.162 235.389C419.569 233.896 419.841 232.402 420.248 230.909L422.963 231.452C422.42 233.081 422.149 234.574 421.741 236.068ZM217.95 224.527C217.679 223.034 217.543 221.405 217.407 219.911L220.123 219.64C220.258 221.133 220.394 222.627 220.666 224.12L217.95 224.527ZM424.05 224.256L421.334 223.849C421.606 222.355 421.742 220.862 421.877 219.368L424.593 219.64C424.457 221.133 424.321 222.627 424.05 224.256ZM217 212.58C217 211.765 217 210.95 217 210C217 209.321 217 208.642 217 207.963L218.358 207.828L219.715 207.963C219.715 208.642 219.715 209.321 219.715 210C219.715 210.815 219.715 211.629 219.715 212.444L217 212.58ZM425 212.172H422.285V211.901C422.285 211.222 422.285 210.543 422.285 209.864C422.285 209.05 422.285 208.099 422.285 207.285H425C425 208.099 425 209.05 425 209.864C425 210.543 425 211.222 425 211.901V212.172ZM219.987 200.632L217.272 200.36C217.407 198.867 217.543 197.238 217.815 195.744L220.53 196.151C220.394 197.645 220.123 199.138 219.987 200.632ZM421.877 200.089C421.742 198.595 421.606 197.102 421.334 195.608L424.05 195.201C424.321 196.695 424.457 198.324 424.593 199.817L421.877 200.089ZM221.752 188.956L219.037 188.413C219.308 186.919 219.715 185.426 220.123 183.932L222.702 184.611C222.431 186.104 222.159 187.598 221.752 188.956ZM420.112 188.548C419.841 187.055 419.433 185.561 419.026 184.204L421.606 183.525C422.013 185.018 422.42 186.512 422.692 188.005L420.112 188.548ZM224.875 177.687L222.295 176.872C222.838 175.379 223.381 173.885 223.924 172.527L226.504 173.478C225.825 174.836 225.418 176.193 224.875 177.687ZM416.854 177.144C416.311 175.786 415.903 174.292 415.225 172.935L417.804 171.984C418.347 173.478 418.89 174.971 419.433 176.329L416.854 177.144ZM229.219 166.689L226.775 165.467C227.454 164.11 228.133 162.752 228.812 161.258L231.256 162.48C230.577 163.974 229.898 165.332 229.219 166.689ZM412.373 166.146C411.695 164.789 411.016 163.431 410.337 162.073L412.781 160.851C413.46 162.209 414.274 163.567 414.953 165.06L412.373 166.146ZM234.922 156.371L232.614 154.877C233.428 153.52 234.243 152.298 235.193 150.94L237.366 152.433C236.551 153.927 235.736 155.149 234.922 156.371ZM406.671 155.963C405.856 154.742 405.042 153.384 404.227 152.162L406.399 150.668C407.35 151.89 408.165 153.248 408.979 154.606L406.671 155.963ZM241.71 146.731L239.538 145.102C240.488 143.88 241.574 142.658 242.525 141.572L244.561 143.337C243.611 144.423 242.661 145.645 241.71 146.731ZM399.883 146.324C398.932 145.102 397.982 144.016 396.896 142.794L398.932 141.029C400.018 142.115 400.969 143.337 401.919 144.559L399.883 146.324ZM249.585 138.042L247.684 136.141C248.77 135.055 249.856 133.969 251.078 132.883L252.843 134.919C251.757 135.869 250.671 136.956 249.585 138.042ZM391.872 137.634C390.786 136.548 389.7 135.598 388.614 134.512L390.379 132.475C391.601 133.561 392.687 134.648 393.773 135.598L391.872 137.634ZM258.41 130.167L256.781 127.995C258.003 127.044 259.225 126.094 260.446 125.144L262.076 127.316C260.854 128.402 259.632 129.217 258.41 130.167ZM383.047 129.896C381.825 128.945 380.603 128.131 379.381 127.18L381.01 125.008C382.232 125.958 383.59 126.773 384.812 127.723L383.047 129.896ZM268.05 123.514L266.692 121.206C268.05 120.392 269.407 119.577 270.765 118.898L272.123 121.342C270.765 121.885 269.407 122.7 268.05 123.514ZM373.272 123.107C371.914 122.292 370.692 121.614 369.334 120.799L370.692 118.355C372.05 119.034 373.407 119.849 374.765 120.663L373.272 123.107ZM278.504 117.948L277.418 115.504C278.775 114.825 280.269 114.282 281.627 113.603L282.713 116.183C281.219 116.726 279.862 117.269 278.504 117.948ZM362.953 117.676C361.595 116.997 360.238 116.454 358.744 115.911L359.695 113.332C361.052 113.875 362.546 114.554 363.903 115.097L362.953 117.676ZM289.501 113.603L288.687 111.024C290.18 110.48 291.674 110.073 293.167 109.666L293.846 112.245C292.352 112.653 290.859 113.196 289.501 113.603ZM351.956 113.467C350.462 113.06 349.104 112.517 347.611 112.245L348.29 109.666C349.783 110.073 351.277 110.48 352.77 111.024L351.956 113.467ZM300.906 110.616L300.363 107.901C301.856 107.629 303.35 107.358 304.979 107.086L305.386 109.802C303.893 110.073 302.399 110.345 300.906 110.616ZM340.551 110.48C339.057 110.209 337.564 109.937 336.071 109.666L336.478 106.95C337.971 107.222 339.601 107.493 341.094 107.765L340.551 110.48ZM312.582 108.987L312.311 106.272C313.804 106.136 315.433 106 316.927 106L317.063 108.715C315.569 108.715 314.076 108.851 312.582 108.987ZM328.875 108.987C327.381 108.851 325.888 108.851 324.394 108.715L324.53 106C326.024 106 327.653 106.136 329.146 106.272L328.875 108.987Z" fill="#DEA700" fill-opacity="0.6"/>
<path d="M316.486 345C314.576 345 312.492 344.826 310.582 344.653L310.929 341.18C312.839 341.354 314.749 341.527 316.659 341.527L316.486 345ZM325.862 345L325.688 341.527C327.598 341.527 329.508 341.354 331.418 341.18L331.765 344.653C329.855 344.826 327.945 344.826 325.862 345ZM301.033 343.611C299.123 343.264 297.039 342.916 295.129 342.569L295.824 339.097C297.734 339.444 299.644 339.791 301.554 340.138L301.033 343.611ZM341.315 343.437L340.794 339.965C342.704 339.617 344.614 339.27 346.523 338.923L347.218 342.396C345.308 342.916 343.225 343.264 341.315 343.437ZM285.927 340.312C284.017 339.791 282.107 339.27 280.197 338.576L281.239 335.277C283.149 335.798 284.885 336.492 286.795 337.013L285.927 340.312ZM356.42 340.312L355.552 337.013C357.462 336.492 359.198 335.971 361.108 335.277L362.15 338.576C360.24 339.097 358.33 339.791 356.42 340.312ZM271.168 335.45C269.258 334.756 267.522 333.888 265.786 333.02L267.175 329.894C268.911 330.762 270.648 331.457 272.557 332.151L271.168 335.45ZM371.179 335.277L369.79 331.978C371.526 331.283 373.436 330.415 375.172 329.721L376.561 332.846C374.825 333.714 372.915 334.409 371.179 335.277ZM257.278 328.853C255.542 327.984 253.805 326.943 252.069 325.901L253.805 322.949C255.368 323.991 257.104 324.859 258.841 325.901L257.278 328.853ZM385.069 328.505L383.333 325.38C385.069 324.512 386.632 323.47 388.368 322.428L390.104 325.38C388.542 326.595 386.805 327.637 385.069 328.505ZM244.082 320.692C242.52 319.477 240.783 318.435 239.221 317.219L241.304 314.441C242.867 315.657 244.429 316.698 245.992 317.914L244.082 320.692ZM398.265 320.345L396.181 317.567C397.744 316.525 399.307 315.309 400.869 314.094L402.953 316.872C401.39 317.914 399.828 319.129 398.265 320.345ZM232.102 310.969C230.713 309.58 229.15 308.191 227.761 306.975L230.192 304.544C231.581 305.933 232.97 307.149 234.359 308.538L232.102 310.969ZM410.245 310.621L407.988 308.017C409.377 306.628 410.766 305.413 412.155 304.024L414.586 306.454C413.197 307.843 411.808 309.232 410.245 310.621ZM221.163 300.03C219.774 298.467 218.559 297.078 217.343 295.516L220.121 293.259C221.337 294.821 222.552 296.21 223.941 297.773L221.163 300.03ZM421.184 299.509L418.58 297.252C419.795 295.863 421.184 294.3 422.226 292.738L425.004 294.821C423.788 296.557 422.399 298.12 421.184 299.509ZM211.614 287.876C210.398 286.313 209.356 284.577 208.315 282.841L211.266 280.931C212.308 282.493 213.35 284.23 214.392 285.792L211.614 287.876ZM430.56 287.355L427.782 285.445C428.824 283.883 429.866 282.146 430.907 280.584L433.859 282.493C432.817 284.056 431.775 285.792 430.56 287.355ZM203.453 274.507C202.585 272.77 201.543 270.86 200.849 269.124L203.974 267.561C204.842 269.298 205.71 271.034 206.578 272.77L203.453 274.507ZM438.721 274.159L435.595 272.597C436.463 270.86 437.332 269.124 438.2 267.388L441.325 268.95C440.457 270.687 439.589 272.423 438.721 274.159ZM197.029 260.443C196.334 258.533 195.64 256.623 194.945 254.886L198.244 253.845C198.939 255.581 199.46 257.491 200.328 259.227L197.029 260.443ZM445.145 260.095L441.846 258.88C442.54 257.144 443.235 255.234 443.756 253.497L447.055 254.539C446.534 256.449 445.839 258.185 445.145 260.095ZM192.167 245.858C191.646 243.948 191.125 242.038 190.778 240.128L194.251 239.433C194.598 241.343 195.119 243.253 195.64 244.99L192.167 245.858ZM449.833 245.337L446.534 244.469C447.055 242.559 447.402 240.649 447.923 238.739L451.396 239.433C450.701 241.517 450.354 243.427 449.833 245.337ZM189.215 230.578C188.868 228.668 188.694 226.585 188.521 224.675L191.993 224.328C192.167 226.238 192.341 228.148 192.688 230.057L189.215 230.578ZM452.785 230.231L449.312 229.71C449.659 227.8 449.833 225.89 450.007 223.98L453.479 224.328C453.306 226.238 453.132 228.148 452.785 230.231ZM188 215.299C188 214.257 188 213.215 188 212C188 211.132 188 210.264 188 209.396L189.736 209.222L191.473 209.396C191.473 210.264 191.473 211.132 191.473 212C191.473 213.042 191.473 214.084 191.473 215.125L188 215.299ZM454 214.778H450.527V214.431C450.527 213.563 450.527 212.695 450.527 211.826C450.527 210.785 450.527 209.569 450.527 208.527H454C454 209.569 454 210.785 454 211.826C454 212.695 454 213.563 454 214.431V214.778ZM191.82 200.02L188.347 199.672C188.521 197.762 188.695 195.679 189.042 193.769L192.514 194.29C192.341 196.2 191.993 198.11 191.82 200.02ZM450.007 199.325C449.833 197.415 449.659 195.505 449.312 193.595L452.785 193.074C453.132 194.984 453.306 197.068 453.479 198.978L450.007 199.325ZM194.077 185.087L190.604 184.393C190.952 182.483 191.473 180.573 191.993 178.663L195.292 179.531C194.945 181.441 194.598 183.351 194.077 185.087ZM447.749 184.567C447.402 182.657 446.881 180.747 446.36 179.01L449.659 178.142C450.18 180.052 450.701 181.962 451.048 183.872L447.749 184.567ZM198.07 170.676L194.772 169.634C195.466 167.725 196.161 165.815 196.855 164.078L200.154 165.294C199.286 167.03 198.765 168.766 198.07 170.676ZM443.582 169.982C442.888 168.245 442.367 166.336 441.499 164.599L444.798 163.384C445.492 165.294 446.187 167.204 446.881 168.94L443.582 169.982ZM203.627 156.612L200.501 155.05C201.369 153.313 202.238 151.577 203.106 149.667L206.231 151.23C205.363 153.14 204.495 154.876 203.627 156.612ZM437.852 155.918C436.984 154.181 436.116 152.445 435.248 150.709L438.373 149.146C439.242 150.883 440.283 152.619 441.151 154.529L437.852 155.918ZM210.919 143.416L207.967 141.507C209.009 139.77 210.051 138.208 211.266 136.471L214.044 138.381C213.003 140.291 211.961 141.854 210.919 143.416ZM430.56 142.896C429.518 141.333 428.477 139.597 427.435 138.034L430.213 136.124C431.428 137.687 432.47 139.423 433.512 141.159L430.56 142.896ZM219.601 131.089L216.822 129.005C218.038 127.443 219.427 125.88 220.642 124.491L223.247 126.748C222.031 128.137 220.816 129.7 219.601 131.089ZM421.879 130.568C420.663 129.005 419.448 127.616 418.059 126.054L420.663 123.796C422.052 125.185 423.268 126.748 424.483 128.311L421.879 130.568ZM229.671 119.977L227.24 117.546C228.629 116.157 230.018 114.768 231.581 113.379L233.838 115.983C232.449 117.198 231.06 118.587 229.671 119.977ZM411.634 119.456C410.245 118.067 408.856 116.851 407.467 115.462L409.725 112.858C411.287 114.247 412.676 115.636 414.065 116.851L411.634 119.456ZM240.957 109.906L238.873 107.128C240.436 105.913 241.999 104.697 243.561 103.482L245.645 106.26C244.082 107.649 242.52 108.691 240.957 109.906ZM400.349 109.559C398.786 108.343 397.223 107.302 395.661 106.086L397.744 103.308C399.307 104.523 401.043 105.565 402.606 106.781L400.349 109.559ZM253.285 101.398L251.548 98.4465C253.285 97.4047 255.021 96.3629 256.757 95.4948L258.493 98.6201C256.757 99.3146 255.021 100.356 253.285 101.398ZM387.847 100.877C386.111 99.8355 384.548 98.9674 382.812 97.9256L384.548 94.8003C386.285 95.6684 388.021 96.7102 389.757 97.752L387.847 100.877ZM266.654 94.2794L265.265 91.154C267.001 90.2859 268.911 89.5914 270.648 88.7232L272.037 92.0222C270.127 92.7167 268.39 93.4112 266.654 94.2794ZM374.651 93.9321C372.915 93.064 371.179 92.3695 369.269 91.6749L370.484 88.376C372.221 89.0705 374.131 89.9387 375.867 90.6332L374.651 93.9321ZM280.718 88.7232L279.676 85.4243C281.586 84.7298 283.496 84.2089 285.406 83.688L286.274 86.987C284.364 87.5078 282.454 88.2024 280.718 88.7232ZM360.587 88.5496C358.678 88.0287 356.941 87.3342 355.031 86.987L355.899 83.688C357.809 84.2089 359.719 84.7298 361.629 85.4243L360.587 88.5496ZM295.303 84.9034L294.608 81.4308C296.518 81.0836 298.428 80.7363 300.512 80.389L301.033 83.8616C299.123 84.2089 297.213 84.5561 295.303 84.9034ZM346.003 84.7298C344.093 84.3825 342.183 84.0353 340.273 83.688L340.794 80.2154C342.704 80.5627 344.787 80.9099 346.697 81.2572L346.003 84.7298ZM310.235 82.8199L309.888 79.3473C311.798 79.1736 313.881 79 315.791 79L315.965 82.4726C314.055 82.4726 312.145 82.6462 310.235 82.8199ZM331.07 82.8199C329.161 82.6462 327.251 82.6462 325.341 82.4726L325.514 79C327.424 79 329.508 79.1736 331.418 79.3473L331.07 82.8199Z" fill="#DEA700"/>
<path d="M321.6 138H319.3V282.1H321.6V138Z" fill="white"/>
<path d="M320.2 137.2C322.464 137.2 324.3 135.364 324.3 133.1C324.3 130.836 322.464 129 320.2 129C317.935 129 316.1 130.836 316.1 133.1C316.1 135.364 317.935 137.2 320.2 137.2Z" fill="#005675"/>
<path d="M320.2 138.4C317.3 138.4 315 136 315 133.2C315 130.3 317.4 128 320.2 128C323.1 128 325.4 130.4 325.4 133.2C325.5 136 323.1 138.4 320.2 138.4ZM320.2 130.2C318.6 130.2 317.2 131.5 317.2 133.2C317.2 134.8 318.5 136.2 320.2 136.2C321.8 136.2 323.2 134.9 323.2 133.2C323.2 131.5 321.9 130.2 320.2 130.2Z" fill="white"/>
<path d="M320.2 290.2C322.464 290.2 324.3 288.364 324.3 286.1C324.3 283.836 322.464 282 320.2 282C317.935 282 316.1 283.836 316.1 286.1C316.1 288.364 317.935 290.2 320.2 290.2Z" fill="#005675"/>
<path d="M320.2 291.4C317.3 291.4 315 289 315 286.2C315 283.3 317.4 281 320.2 281C323.1 281 325.4 283.4 325.4 286.2C325.5 289 323.1 291.4 320.2 291.4ZM320.2 283.1C318.6 283.1 317.2 284.4 317.2 286.1C317.2 287.7 318.5 289.1 320.2 289.1C321.8 289.1 323.2 287.8 323.2 286.1C323.2 284.5 321.9 283.1 320.2 283.1Z" fill="white"/>
<path d="M384.13 251.727L256.275 169.999L255.037 171.937L382.892 253.665L384.13 251.727Z" fill="white"/>
<path d="M256.735 254.351L383.694 171.239L382.435 169.315L255.475 252.427L256.735 254.351Z" fill="white"/>
<path d="M255.2 175.2C257.464 175.2 259.3 173.364 259.3 171.1C259.3 168.836 257.464 167 255.2 167C252.935 167 251.1 168.836 251.1 171.1C251.1 173.364 252.935 175.2 255.2 175.2Z" fill="#005675"/>
<path d="M255.2 176.4C252.3 176.4 250 174 250 171.2C250 168.4 252.4 166 255.2 166C258.1 166 260.4 168.4 260.4 171.2C260.4 174 258.1 176.4 255.2 176.4ZM255.2 168.2C253.6 168.2 252.2 169.5 252.2 171.2C252.2 172.9 253.5 174.2 255.2 174.2C256.8 174.2 258.2 172.9 258.2 171.2C258.2 169.5 256.8 168.2 255.2 168.2Z" fill="white"/>
<path d="M384.2 175.2C386.464 175.2 388.3 173.364 388.3 171.1C388.3 168.836 386.464 167 384.2 167C381.935 167 380.1 168.836 380.1 171.1C380.1 173.364 381.935 175.2 384.2 175.2Z" fill="#005675"/>
<path d="M384.2 176.4C381.3 176.4 379 174 379 171.2C379 168.4 381.4 166 384.2 166C387.1 166 389.4 168.4 389.4 171.2C389.4 174 387.1 176.4 384.2 176.4ZM384.2 168.2C382.6 168.2 381.2 169.5 381.2 171.2C381.2 172.9 382.5 174.2 384.2 174.2C385.8 174.2 387.2 172.9 387.2 171.2C387.2 169.5 385.8 168.2 384.2 168.2Z" fill="white"/>
<path d="M255.2 258.3C257.464 258.3 259.3 256.464 259.3 254.2C259.3 251.935 257.464 250.1 255.2 250.1C252.935 250.1 251.1 251.935 251.1 254.2C251.1 256.464 252.935 258.3 255.2 258.3Z" fill="#005675"/>
<path d="M255.2 259.4C252.3 259.4 250 257 250 254.2C250 251.4 252.4 249 255.2 249C258 249 260.4 251.4 260.4 254.2C260.4 257 258.1 259.4 255.2 259.4ZM255.2 251.2C253.6 251.2 252.2 252.5 252.2 254.2C252.2 255.9 253.5 257.2 255.2 257.2C256.9 257.2 258.2 255.9 258.2 254.2C258.2 252.5 256.8 251.2 255.2 251.2Z" fill="white"/>
<path d="M384.2 258.3C386.464 258.3 388.3 256.464 388.3 254.2C388.3 251.935 386.464 250.1 384.2 250.1C381.935 250.1 380.1 251.935 380.1 254.2C380.1 256.464 381.935 258.3 384.2 258.3Z" fill="#005675"/>
<path d="M384.2 259.4C381.3 259.4 379 257 379 254.2C379 251.4 381.4 249 384.2 249C387 249 389.4 251.4 389.4 254.2C389.4 257 387.1 259.4 384.2 259.4ZM384.2 251.2C382.6 251.2 381.2 252.5 381.2 254.2C381.2 255.9 382.5 257.2 384.2 257.2C385.9 257.2 387.2 255.9 387.2 254.2C387.2 252.5 385.8 251.2 384.2 251.2Z" fill="white"/>
<circle cx="320" cy="211" r="23" fill="white"/>
<circle cx="320" cy="211" r="24.5" stroke="#005675" stroke-opacity="0.62" stroke-width="3"/>
<path d="M316.721 220H326.764C326.822 219.999 326.878 219.977 326.921 219.936C326.945 219.914 326.965 219.887 326.978 219.857C326.992 219.827 326.999 219.795 326.999 219.762V210.373C322.944 214.136 317.698 216.334 312.188 216.581C312.474 217.568 313.071 218.434 313.888 219.05C314.706 219.667 315.7 220 316.721 220Z" fill="#005675"/>
<path d="M326.763 201H326.746C325.689 201.065 324.685 201.485 323.894 202.194C323.104 202.902 322.572 203.857 322.386 204.905C322.375 204.959 322.347 205.008 322.304 205.044C322.262 205.079 322.209 205.098 322.154 205.098C322.113 205.098 322.072 205.087 322.036 205.067L322.024 205.058C321.201 204.532 320.236 204.275 319.262 204.323C318.289 204.371 317.354 204.722 316.586 205.328C315.819 205.933 315.257 206.763 314.978 207.703C314.698 208.643 314.716 209.647 315.027 210.577C315.036 210.602 315.04 210.627 315.04 210.653C315.04 210.701 315.026 210.747 314.999 210.787C314.973 210.826 314.935 210.856 314.891 210.874C313.825 211.324 312.959 212.154 312.461 213.204C311.962 214.255 311.864 215.453 312.187 216.571C320.266 216.035 326.695 209.418 327 201.229C326.998 201.167 326.972 201.109 326.928 201.066C326.884 201.024 326.825 201 326.763 201Z" fill="#005675"/>
<path d="M217.5 318C227.717 318 236 309.717 236 299.5C236 289.283 227.717 281 217.5 281C207.283 281 199 289.283 199 299.5C199 309.717 207.283 318 217.5 318Z" fill="url(#paint1_linear_881_3343)" stroke="#35384D" stroke-width="2.3506" stroke-miterlimit="10"/>
<path d="M217.5 143C227.717 143 236 134.717 236 124.5C236 114.283 227.717 106 217.5 106C207.283 106 199 114.283 199 124.5C199 134.717 207.283 143 217.5 143Z" fill="url(#paint2_linear_881_3343)" stroke="#35384D" stroke-width="2.3506" stroke-miterlimit="10"/>
<path d="M425.5 318C435.717 318 444 309.717 444 299.5C444 289.283 435.717 281 425.5 281C415.283 281 407 289.283 407 299.5C407 309.717 415.283 318 425.5 318Z" fill="url(#paint3_linear_881_3343)" stroke="#35384D" stroke-width="2.3506" stroke-miterlimit="10"/>
<path d="M425.5 143C435.717 143 444 134.717 444 124.5C444 114.283 435.717 106 425.5 106C415.283 106 407 114.283 407 124.5C407 134.717 415.283 143 425.5 143Z" fill="url(#paint4_linear_881_3343)" stroke="#35384D" stroke-width="2.3506" stroke-miterlimit="10"/>
<path d="M436.95 122.548C436.508 122.548 436.13 122.831 435.977 123.229H434.704V121.439H435.977C436.13 121.837 436.508 122.119 436.951 122.119C437.529 122.119 438 121.637 438 121.044C438 120.452 437.529 119.969 436.951 119.969C436.51 119.969 436.131 120.252 435.977 120.65H434.32C434.108 120.65 433.936 120.827 433.936 121.043V123.227H430.964C430.469 122.655 429.748 122.291 428.945 122.291C428.89 122.291 428.834 122.295 428.779 122.3C428.431 121.281 427.693 120.477 426.762 120.053V117.244H428.428C428.581 117.643 428.96 117.927 429.403 117.927C429.981 117.927 430.451 117.444 430.451 116.851C430.451 116.259 429.981 115.776 429.403 115.776C428.961 115.776 428.584 116.058 428.429 116.455H426.377C426.165 116.455 425.993 116.632 425.993 116.848V119.801C425.745 119.748 425.491 119.718 425.23 119.718C425.067 119.718 424.907 119.733 424.749 119.754V118.776V118.773V118.77V117.074C425.137 116.917 425.414 116.529 425.414 116.075C425.414 115.483 424.943 115 424.365 115C423.787 115 423.317 115.483 423.317 116.075C423.317 116.528 423.592 116.916 423.98 117.074V118.379H422.235V117.074C422.623 116.917 422.899 116.529 422.899 116.075C422.899 115.483 422.428 115 421.85 115C421.272 115 420.801 115.483 420.801 116.075C420.801 116.528 421.077 116.916 421.465 117.074V118.773C421.465 118.991 421.638 119.167 421.849 119.167H423.979V119.941C422.559 120.456 421.529 121.823 421.478 123.442C421.085 123.464 420.714 123.572 420.383 123.749L416.189 123.753V122.043C416.577 121.886 416.852 121.498 416.852 121.044C416.852 120.452 416.382 119.969 415.804 119.969C415.227 119.97 414.756 120.452 414.756 121.044C414.756 121.497 415.032 121.885 415.42 122.043V124.147C415.42 124.364 415.592 124.54 415.804 124.54H419.475C419.205 124.905 419.021 125.34 418.955 125.814H416.023C415.87 125.416 415.491 125.134 415.049 125.134C414.471 125.134 414 125.616 414 126.209C414 126.801 414.471 127.284 415.049 127.284C415.49 127.284 415.869 127.002 416.023 126.604H417.296V128.394H416.023C415.87 127.996 415.491 127.714 415.049 127.714C414.471 127.714 414 128.196 414 128.789C414 129.382 414.471 129.864 415.049 129.864C415.49 129.864 415.869 129.582 416.023 129.184H417.68C417.892 129.184 418.064 129.007 418.064 128.79V126.606H418.955C419.142 127.947 420.267 128.983 421.627 128.983H424.49V131.76H422.824C422.67 131.362 422.292 131.078 421.849 131.078C421.271 131.078 420.8 131.561 420.8 132.153C420.8 132.746 421.271 133.228 421.849 133.228C422.291 133.228 422.669 132.946 422.823 132.549H424.874C425.086 132.549 425.258 132.372 425.258 132.155L425.26 128.979H426.503V130.219C426.503 130.222 426.502 130.224 426.502 130.226C426.502 130.228 426.503 130.23 426.503 130.233V131.924C426.115 132.082 425.839 132.47 425.839 132.924C425.839 133.516 426.309 133.999 426.887 133.999C427.465 133.999 427.936 133.516 427.936 132.924C427.936 132.471 427.66 132.083 427.272 131.926V130.621H429.018V131.926C428.63 132.083 428.354 132.471 428.354 132.925C428.354 133.517 428.825 134 429.403 134C429.981 134 430.451 133.517 430.451 132.925C430.451 132.472 430.176 132.084 429.788 131.926V130.227C429.788 130.009 429.615 129.833 429.404 129.833H427.274V128.98H431.823C431.881 128.98 431.934 128.966 431.984 128.943C432.838 128.768 433.485 127.993 433.485 127.066C433.485 126.706 433.385 126.368 433.215 126.08H435.813V127.789C435.424 127.946 435.148 128.334 435.148 128.788C435.148 129.381 435.618 129.863 436.196 129.863C436.774 129.863 437.245 129.381 437.245 128.788C437.245 128.335 436.97 127.947 436.582 127.79V125.687C436.582 125.469 436.41 125.293 436.199 125.293L432.313 125.292C432.105 125.205 431.878 125.157 431.641 125.153C431.642 125.124 431.646 125.094 431.646 125.063C431.646 124.693 431.573 124.34 431.444 124.016H434.315C434.317 124.016 434.318 124.017 434.32 124.017C434.322 124.017 434.323 124.016 434.325 124.016H435.977C436.13 124.414 436.509 124.697 436.951 124.697C437.529 124.697 438 124.215 438 123.622C437.998 123.03 437.528 122.548 436.95 122.548ZM436.95 120.757C437.105 120.757 437.23 120.886 437.23 121.044C437.23 121.203 437.105 121.331 436.95 121.331C436.796 121.331 436.67 121.203 436.67 121.044C436.67 120.886 436.796 120.757 436.95 120.757ZM429.402 116.567C429.556 116.567 429.681 116.695 429.681 116.853C429.681 117.012 429.556 117.14 429.402 117.14C429.256 117.14 429.137 117.025 429.125 116.879C429.126 116.87 429.127 116.861 429.127 116.851C429.127 116.842 429.125 116.835 429.125 116.827C429.138 116.682 429.256 116.567 429.402 116.567ZM421.85 115.793C422.004 115.793 422.13 115.921 422.13 116.079C422.13 116.238 422.004 116.366 421.85 116.366C421.695 116.366 421.57 116.238 421.57 116.079C421.57 115.921 421.695 115.793 421.85 115.793ZM424.364 115.793C424.519 115.793 424.644 115.921 424.644 116.079C424.644 116.237 424.52 116.364 424.366 116.366H424.364H424.362C424.209 116.365 424.084 116.237 424.084 116.079C424.084 115.921 424.21 115.793 424.364 115.793ZM415.804 120.757C415.959 120.757 416.084 120.886 416.084 121.044C416.084 121.184 415.987 121.3 415.857 121.326C415.84 121.324 415.823 121.32 415.804 121.32C415.786 121.32 415.769 121.324 415.752 121.326C415.623 121.3 415.525 121.184 415.525 121.044C415.525 120.886 415.65 120.757 415.804 120.757ZM415.048 129.074C414.894 129.074 414.769 128.945 414.769 128.787C414.769 128.629 414.894 128.5 415.048 128.5C415.203 128.5 415.328 128.629 415.328 128.787C415.328 128.945 415.203 129.074 415.048 129.074ZM421.85 132.437C421.695 132.437 421.57 132.308 421.57 132.15C421.57 131.992 421.695 131.863 421.85 131.863C421.995 131.863 422.113 131.978 422.127 132.124C422.126 132.132 422.125 132.141 422.125 132.15C422.125 132.159 422.127 132.166 422.127 132.175C422.113 132.321 421.994 132.437 421.85 132.437ZM429.401 133.211C429.247 133.211 429.122 133.082 429.122 132.924C429.122 132.766 429.247 132.637 429.401 132.637C429.556 132.637 429.681 132.766 429.681 132.924C429.681 133.082 429.556 133.211 429.401 133.211ZM426.887 133.211C426.733 133.211 426.607 133.082 426.607 132.924C426.607 132.766 426.733 132.637 426.887 132.637C427.041 132.637 427.167 132.766 427.167 132.924C427.167 133.082 427.041 133.211 426.887 133.211ZM436.194 129.074C436.04 129.074 435.914 128.945 435.914 128.787C435.914 128.638 436.027 128.516 436.169 128.502C436.178 128.503 436.187 128.505 436.195 128.505C436.204 128.505 436.211 128.502 436.219 128.502C436.361 128.516 436.474 128.638 436.474 128.787C436.474 128.945 436.348 129.074 436.194 129.074ZM415.048 126.496C414.894 126.496 414.769 126.367 414.769 126.209C414.769 126.051 414.894 125.922 415.048 125.922C415.203 125.922 415.328 126.051 415.328 126.209C415.328 126.367 415.203 126.496 415.048 126.496ZM431.615 128.192H421.627C420.561 128.192 419.693 127.303 419.693 126.21C419.693 125.116 420.561 124.227 421.627 124.227C421.695 124.227 421.76 124.23 421.827 124.237C421.833 124.238 421.839 124.237 421.845 124.237C421.853 124.237 421.859 124.239 421.867 124.239C421.879 124.239 421.891 124.238 421.904 124.237H421.905C421.912 124.236 421.918 124.234 421.924 124.232C422.043 124.214 422.142 124.141 422.199 124.041C422.2 124.039 422.202 124.037 422.203 124.033C422.215 124.011 422.225 123.988 422.232 123.964C422.232 123.963 422.233 123.963 422.233 123.962C422.241 123.937 422.246 123.911 422.249 123.884C422.252 123.867 422.25 123.851 422.249 123.836C422.249 123.826 422.25 123.816 422.249 123.806V123.805V123.804C422.243 123.729 422.24 123.652 422.24 123.574C422.24 121.883 423.58 120.508 425.228 120.508C426.603 120.508 427.795 121.461 428.13 122.825C428.132 122.835 428.136 122.843 428.139 122.853C428.143 122.866 428.148 122.879 428.153 122.891C428.158 122.902 428.164 122.913 428.17 122.924C428.177 122.935 428.183 122.947 428.191 122.958C428.198 122.968 428.206 122.978 428.214 122.988C428.222 122.998 428.23 123.007 428.239 123.015C428.249 123.024 428.258 123.033 428.269 123.041C428.277 123.047 428.287 123.055 428.297 123.061C428.309 123.069 428.32 123.075 428.332 123.081C428.342 123.087 428.351 123.091 428.361 123.096C428.374 123.101 428.388 123.104 428.402 123.109C428.412 123.112 428.422 123.114 428.432 123.116C428.446 123.12 428.461 123.12 428.475 123.121C428.486 123.122 428.496 123.123 428.507 123.123C428.521 123.123 428.535 123.121 428.549 123.119C428.557 123.118 428.567 123.118 428.576 123.116C428.697 123.092 428.82 123.079 428.942 123.079C430.008 123.079 430.876 123.968 430.876 125.061C430.876 125.214 430.858 125.367 430.824 125.515C430.822 125.523 430.823 125.53 430.821 125.536C430.819 125.55 430.817 125.565 430.815 125.579C430.814 125.592 430.814 125.604 430.815 125.616C430.815 125.63 430.817 125.642 430.819 125.655C430.821 125.669 430.823 125.682 430.826 125.697C430.828 125.704 430.828 125.711 430.83 125.718C430.832 125.722 430.834 125.725 430.836 125.731C430.84 125.744 430.846 125.757 430.852 125.769C430.857 125.78 430.862 125.791 430.868 125.802C430.874 125.813 430.882 125.824 430.889 125.834C430.897 125.844 430.903 125.854 430.911 125.863C430.919 125.873 430.929 125.882 430.939 125.891C430.947 125.899 430.955 125.907 430.963 125.913C430.974 125.922 430.986 125.93 430.999 125.937C431.008 125.943 431.017 125.95 431.027 125.954C431.039 125.961 431.051 125.965 431.063 125.969C431.075 125.974 431.087 125.978 431.099 125.981C431.103 125.982 431.107 125.985 431.112 125.986C431.119 125.987 431.125 125.987 431.132 125.988C431.149 125.991 431.165 125.993 431.182 125.993C431.189 125.993 431.194 125.996 431.2 125.996C431.207 125.996 431.213 125.995 431.22 125.993C431.228 125.992 431.237 125.992 431.247 125.991C431.263 125.989 431.279 125.986 431.295 125.981C431.3 125.98 431.305 125.98 431.311 125.978C431.406 125.948 431.509 125.934 431.616 125.934C432.222 125.934 432.714 126.44 432.714 127.06C432.714 127.687 432.221 128.192 431.615 128.192ZM436.95 123.909C436.796 123.909 436.67 123.781 436.67 123.622C436.67 123.464 436.796 123.335 436.95 123.335C437.104 123.335 437.23 123.464 437.23 123.622C437.229 123.781 437.103 123.909 436.95 123.909Z" fill="white"/>
<path d="M320.5 363C330.717 363 339 354.717 339 344.5C339 334.283 330.717 326 320.5 326C310.283 326 302 334.283 302 344.5C302 354.717 310.283 363 320.5 363Z" fill="url(#paint5_linear_881_3343)" stroke="#35384D" stroke-width="2.3506" stroke-miterlimit="10"/>
<path d="M320.5 97C330.717 97 339 88.7173 339 78.5C339 68.2827 330.717 60 320.5 60C310.283 60 302 68.2827 302 78.5C302 88.7173 310.283 97 320.5 97Z" fill="url(#paint6_linear_881_3343)" stroke="#35384D" stroke-width="2.3506" stroke-miterlimit="10"/>
<path d="M430.356 303.694C431.084 302.819 431.569 301.726 431.691 300.51H433.826C433.802 300.364 433.777 300.194 433.777 300.024C433.777 299.854 433.802 299.684 433.826 299.538H431.691C431.569 298.299 431.084 297.205 430.356 296.33L431.86 294.823C431.593 294.653 431.351 294.41 431.181 294.143L429.676 295.625C428.778 294.896 427.686 294.41 426.473 294.313V292.174C426.328 292.198 426.158 292.222 425.988 292.222C425.818 292.222 425.648 292.198 425.502 292.174V294.313C424.289 294.41 423.197 294.896 422.323 295.625L420.819 294.118C420.625 294.386 420.406 294.629 420.115 294.799L421.62 296.306C420.892 297.205 420.406 298.299 420.309 299.514H418.174C418.198 299.66 418.222 299.83 418.222 300C418.222 300.17 418.198 300.34 418.174 300.486H420.309C420.406 301.701 420.892 302.795 421.62 303.67L420.115 305.177C420.382 305.347 420.625 305.59 420.795 305.857L422.299 304.35C423.197 305.104 424.289 305.59 425.502 305.687V307.826C425.648 307.802 425.818 307.777 425.988 307.777C426.158 307.777 426.328 307.802 426.473 307.826V305.687C427.686 305.59 428.778 305.104 429.652 304.375L431.157 305.882C431.327 305.614 431.569 305.371 431.836 305.201L430.356 303.694ZM425.988 304.739C423.367 304.739 421.256 302.601 421.256 300C421.256 297.399 423.367 295.261 425.988 295.261C428.609 295.261 430.72 297.399 430.72 300C430.72 302.601 428.609 304.739 425.988 304.739Z" fill="white"/>
<path d="M427.566 309.026C427.783 309.289 427.968 309.577 428.03 309.913L431.74 308.714C431.524 308.45 431.338 308.162 431.277 307.826L427.566 309.026Z" fill="white"/>
<path d="M420.261 308.714L423.967 309.913C424.061 309.601 424.217 309.289 424.435 309.026L420.728 307.826C420.666 308.162 420.479 308.45 420.261 308.714Z" fill="white"/>
<path d="M424.435 290.986C424.217 290.719 424.03 290.428 423.967 290.088L420.261 291.277C420.479 291.544 420.666 291.835 420.728 292.175L424.435 290.986Z" fill="white"/>
<path d="M418.175 305.273L416.975 301.566C416.712 301.784 416.424 301.971 416.088 302.034L417.263 305.74C417.527 305.522 417.839 305.367 418.175 305.273Z" fill="white"/>
<path d="M418.175 294.728C417.859 294.635 417.544 294.479 417.277 294.261L416.088 297.967C416.403 298.061 416.719 298.217 416.986 298.435L418.175 294.728Z" fill="white"/>
<path d="M433.826 294.755L435.015 298.435C435.282 298.218 435.573 298.033 435.913 297.971L434.7 294.261C434.433 294.508 434.142 294.663 433.826 294.755Z" fill="white"/>
<path d="M431.74 291.277L428.034 290.088C427.94 290.403 427.784 290.719 427.566 290.986L431.273 292.175C431.335 291.835 431.522 291.544 431.74 291.277Z" fill="white"/>
<path d="M433.826 305.273C434.138 305.367 434.45 305.522 434.714 305.74L435.913 302.034C435.601 301.94 435.289 301.784 435.026 301.566L433.826 305.273Z" fill="white"/>
<path d="M425.999 291.13C426.878 291.13 427.564 290.416 427.564 289.565C427.564 288.686 426.85 288 425.999 288C425.12 288 424.434 288.714 424.434 289.565C424.434 290.416 425.148 291.13 425.999 291.13Z" fill="white"/>
<path d="M418.696 294.261C419.575 294.261 420.261 293.547 420.261 292.696C420.261 291.817 419.548 291.131 418.696 291.131C417.845 291.131 417.132 291.845 417.132 292.696C417.104 293.547 417.818 294.261 418.696 294.261Z" fill="white"/>
<path d="M417.13 299.999C417.13 299.12 416.423 298.434 415.579 298.434C414.735 298.434 414 299.12 414 299.999C414 300.878 414.708 301.564 415.552 301.564C416.395 301.564 417.13 300.85 417.13 299.999Z" fill="white"/>
<path d="M418.696 305.739C417.817 305.739 417.131 306.453 417.131 307.304C417.131 308.183 417.845 308.87 418.696 308.87C419.547 308.87 420.261 308.156 420.261 307.304C420.261 306.426 419.547 305.739 418.696 305.739Z" fill="white"/>
<path d="M425.999 308.869C425.12 308.869 424.434 309.583 424.434 310.434C424.434 311.313 425.148 312 425.999 312C426.878 312 427.564 311.286 427.564 310.434C427.564 309.583 426.85 308.869 425.999 308.869Z" fill="white"/>
<path d="M433.304 305.739C432.426 305.739 431.739 306.453 431.739 307.304C431.739 308.183 432.453 308.87 433.304 308.87C434.155 308.87 434.869 308.156 434.869 307.304C434.896 306.453 434.183 305.739 433.304 305.739Z" fill="white"/>
<path d="M436.434 298.434C435.556 298.434 434.869 299.148 434.869 299.999C434.869 300.878 435.583 301.564 436.434 301.564C437.286 301.564 438 300.85 438 299.999C438 299.148 437.286 298.434 436.434 298.434Z" fill="white"/>
<path d="M433.304 294.261C434.183 294.261 434.87 293.547 434.87 292.696C434.87 291.817 434.156 291.131 433.304 291.131C432.453 291.131 431.739 291.845 431.739 292.696C431.739 293.575 432.453 294.261 433.304 294.261Z" fill="white"/>
<path d="M429.333 297.809L426.261 296.407C426.087 296.328 425.913 296.328 425.739 296.407L422.666 297.809C422.464 297.888 422.348 298.073 422.348 298.284V301.722C422.348 301.933 422.464 302.092 422.666 302.198L425.739 303.599C425.826 303.626 425.913 303.652 426 303.652C426.087 303.652 426.174 303.626 426.261 303.599L429.333 302.198C429.536 302.118 429.652 301.933 429.652 301.722V298.284C429.652 298.099 429.507 297.914 429.333 297.809ZM425.42 302.277L423.507 301.405V299.157L425.42 300.03V302.277ZM426 299.104L424.232 298.284L426 297.465L427.768 298.284L426 299.104ZM428.493 301.378L426.58 302.277V300.03L428.493 299.157V301.378Z" fill="white"/>
<path d="M226.938 121.361H223.909C223.83 121.361 223.75 121.377 223.679 121.409L222.279 122.054L222.645 122.102C223.059 122.167 223.433 122.36 223.719 122.634L224.029 122.489H226.938C227.161 123.093 227.742 123.529 228.418 123.529C229.293 123.529 230 122.812 230 121.925C230 121.037 229.293 120.32 228.418 120.32C227.742 120.321 227.161 120.756 226.938 121.361Z" fill="white"/>
<path d="M228.417 126.472C227.741 126.472 227.16 126.899 226.937 127.512L224.027 127.511L223.701 127.358C223.415 127.64 223.049 127.825 222.643 127.89L222.286 127.946L223.678 128.583C223.749 128.615 223.829 128.631 223.908 128.631L226.937 128.632C227.16 129.244 227.74 129.672 228.416 129.672C229.292 129.672 229.999 128.955 229.999 128.068C229.999 127.189 229.292 126.472 228.417 126.472Z" fill="white"/>
<path d="M225.824 131.791C225.148 131.791 224.568 132.226 224.345 132.831H222.214L221.363 132.073L220.838 132.613C220.75 132.702 220.655 132.782 220.552 132.855L221.633 133.814C221.737 133.911 221.872 133.959 222.007 133.959H224.346C224.577 134.564 225.149 135 225.825 135C226.701 135 227.408 134.282 227.408 133.395C227.407 132.508 226.699 131.791 225.824 131.791Z" fill="white"/>
<path d="M221.371 117.919L222.214 117.168H224.345C224.576 117.773 225.148 118.209 225.824 118.209C226.7 118.209 227.407 117.491 227.407 116.604C227.407 115.717 226.7 115 225.824 115C225.148 115 224.576 115.435 224.345 116.04H222.006C221.871 116.04 221.736 116.088 221.632 116.177L220.552 117.144C220.655 117.209 220.75 117.289 220.838 117.378L221.371 117.919Z" fill="white"/>
<path d="M222.481 123.222L220.912 122.991C220.716 122.509 220.663 122.38 220.465 121.897L221.413 120.61C221.667 120.267 221.632 119.787 221.333 119.484L220.046 118.179C219.747 117.876 219.273 117.841 218.934 118.098L217.663 119.059C217.188 118.859 217.06 118.806 216.586 118.606L216.357 117.015C216.297 116.591 215.937 116.277 215.515 116.277H213.693C213.27 116.277 212.912 116.591 212.851 117.015L212.623 118.606C212.147 118.806 212.02 118.859 211.544 119.059L210.274 118.098C209.934 117.842 209.462 117.876 209.163 118.179L207.876 119.484C207.577 119.787 207.542 120.266 207.795 120.61L208.743 121.897C208.546 122.38 208.494 122.509 208.296 122.991L206.727 123.222C206.311 123.284 206 123.647 206 124.076V125.921C206 126.35 206.311 126.713 206.728 126.775L208.297 127.006C208.494 127.489 208.547 127.618 208.744 128.1L207.796 129.388C207.543 129.732 207.578 130.211 207.877 130.514L209.164 131.818C209.463 132.122 209.936 132.156 210.275 131.9L211.549 130.936C212.023 131.135 212.15 131.188 212.624 131.387L212.852 132.982C212.913 133.406 213.271 133.721 213.694 133.721H215.516C215.938 133.721 216.298 133.406 216.358 132.982L216.587 131.391C217.061 131.192 217.189 131.138 217.664 130.938L218.934 131.899C219.274 132.155 219.748 132.121 220.047 131.817L221.334 130.513C221.633 130.21 221.667 129.731 221.414 129.387L220.466 128.099C220.663 127.617 220.717 127.488 220.913 127.005L222.482 126.774C222.901 126.713 223.21 126.349 223.21 125.92L223.209 124.076C223.21 123.647 222.9 123.284 222.481 123.222ZM212.06 121.378C212.739 121.146 213.642 121.018 214.604 121.018C215.566 121.018 216.47 121.146 217.148 121.378C217.796 121.6 218.168 121.898 218.168 122.196C218.168 122.495 217.796 122.793 217.148 123.015C216.469 123.247 215.566 123.375 214.604 123.375C213.642 123.375 212.739 123.247 212.06 123.015C211.412 122.793 211.04 122.495 211.04 122.196C211.04 121.898 211.412 121.599 212.06 121.378ZM218.171 127.797C218.171 128.096 217.799 128.395 217.15 128.617C216.471 128.85 215.567 128.979 214.605 128.979C213.644 128.979 212.74 128.85 212.061 128.617C211.413 128.394 211.041 128.095 211.041 127.797V126.357C212.15 127.016 213.893 127.089 214.606 127.089C215.319 127.089 217.063 127.016 218.172 126.357L218.171 127.797ZM218.171 124.996C218.171 125.294 217.799 125.592 217.15 125.814C216.472 126.046 215.568 126.173 214.605 126.173C213.643 126.173 212.739 126.046 212.06 125.814C211.412 125.593 211.04 125.294 211.04 124.996V123.556C212.149 124.215 213.892 124.288 214.605 124.288C215.318 124.288 217.062 124.215 218.171 123.556L218.171 124.996Z" fill="white"/>
<path d="M216.666 125.441C216.89 125.441 217.072 125.256 217.072 125.03C217.072 124.803 216.889 124.619 216.666 124.619C216.442 124.619 216.261 124.804 216.261 125.03C216.261 125.257 216.443 125.441 216.666 125.441Z" fill="white"/>
<path d="M216.666 128.243C216.89 128.243 217.072 128.058 217.072 127.832C217.072 127.605 216.889 127.421 216.666 127.421C216.442 127.421 216.261 127.606 216.261 127.832C216.261 128.059 216.443 128.243 216.666 128.243Z" fill="white"/>
<path fill-rule="evenodd" clip-rule="evenodd" d="M211.113 300.996L212.062 301.204C212.192 301.233 212.302 301.332 212.337 301.471C212.474 301.999 212.689 302.517 212.966 302.986C213.033 303.1 213.036 303.247 212.958 303.367L212.433 304.188C212.337 304.337 212.356 304.524 212.484 304.651L213.359 305.526C213.487 305.655 213.674 305.673 213.823 305.577L214.636 305.058C214.749 304.981 214.9 304.972 215.026 305.044C215.26 305.183 215.508 305.308 215.762 305.412C216.008 305.513 216.258 305.598 216.511 305.665C216.653 305.689 216.773 305.798 216.805 305.947L217.014 306.896C217.051 307.072 217.198 307.187 217.379 307.187H218.617C218.798 307.187 218.942 307.069 218.983 306.896L219.191 305.947C219.22 305.817 219.319 305.708 219.454 305.672C219.983 305.536 220.5 305.32 220.969 305.043C221.084 304.976 221.231 304.973 221.35 305.051L222.171 305.576C222.32 305.672 222.508 305.654 222.635 305.525L223.51 304.65C223.638 304.522 223.657 304.336 223.561 304.187L223.041 303.373C222.964 303.261 222.956 303.11 223.028 302.984C223.166 302.749 223.291 302.501 223.395 302.247C223.496 302.001 223.582 301.751 223.649 301.498C223.673 301.356 223.782 301.236 223.931 301.204L224.88 300.996C225.056 300.958 225.171 300.811 225.171 300.63V299.393C225.171 299.211 225.053 299.068 224.88 299.027L223.931 298.819C223.801 298.789 223.691 298.69 223.656 298.552C223.519 298.024 223.304 297.506 223.027 297.037C222.96 296.923 222.957 296.776 223.035 296.656L223.56 295.835C223.656 295.686 223.637 295.499 223.509 295.371L222.634 294.496C222.506 294.368 222.319 294.349 222.17 294.445L221.357 294.965C221.244 295.042 221.093 295.051 220.967 294.979C220.733 294.84 220.485 294.715 220.231 294.611C219.985 294.51 219.735 294.424 219.482 294.358C219.34 294.334 219.22 294.224 219.188 294.075L218.979 293.126C218.942 292.95 218.795 292.836 218.614 292.836H217.376C217.195 292.836 217.051 292.954 217.011 293.126L216.802 294.075C216.773 294.206 216.674 294.315 216.539 294.35C216.01 294.487 215.493 294.703 215.024 294.98C214.909 295.046 214.762 295.05 214.643 294.971L213.822 294.446C213.673 294.35 213.485 294.369 213.358 294.497L212.483 295.372C212.355 295.501 212.336 295.687 212.432 295.836L212.952 296.65C213.029 296.762 213.037 296.913 212.965 297.039C212.827 297.274 212.702 297.522 212.598 297.776C212.497 298.022 212.411 298.272 212.345 298.525C212.321 298.666 212.211 298.786 212.062 298.819L211.113 299.027C210.937 299.064 210.823 299.211 210.823 299.393V300.63C210.823 300.811 210.94 300.955 211.113 300.996ZM220.53 297.481C221.927 298.878 221.927 301.145 220.53 302.543C219.133 303.94 216.866 303.94 215.468 302.543C214.071 301.146 214.071 298.879 215.468 297.481C216.865 296.084 219.132 296.084 220.53 297.481ZM217.999 295.705C220.379 295.705 222.306 297.633 222.306 300.011C222.306 302.391 220.377 304.318 217.999 304.318C215.62 304.318 213.693 302.389 213.693 300.011C213.693 297.632 215.621 295.705 217.999 295.705ZM226.485 291.515C227.008 292.038 227.008 292.883 226.485 293.405C225.962 293.928 225.117 293.928 224.595 293.405C224.072 292.883 224.072 292.038 224.595 291.515C225.117 290.992 225.962 290.992 226.485 291.515ZM211.404 293.405C210.881 293.928 210.036 293.928 209.513 293.405C208.99 292.883 208.99 292.038 209.513 291.515C210.036 290.992 210.881 290.992 211.404 291.515C211.927 292.038 211.927 292.883 211.404 293.405ZM226.485 308.487C225.962 309.01 225.117 309.01 224.595 308.487C224.072 307.964 224.072 307.119 224.595 306.596C225.117 306.073 225.962 306.073 226.485 306.596C227.008 307.119 227.008 307.964 226.485 308.487ZM211.404 306.596C211.927 307.119 211.927 307.964 211.404 308.487C210.881 309.01 210.036 309.01 209.513 308.487C208.99 307.964 208.99 307.119 209.513 306.596C210.036 306.073 210.881 306.073 211.404 306.596ZM230 300.001C230 300.74 229.403 301.338 228.663 301.338C227.925 301.338 227.327 300.741 227.327 300.001C227.327 299.262 227.924 298.664 228.663 298.664C229.402 298.664 230 299.261 230 300.001ZM208.673 300.001C208.673 300.74 208.076 301.338 207.337 301.338C206.598 301.338 206 300.741 206 300.001C206 299.262 206.597 298.664 207.337 298.664C208.075 298.664 208.673 299.261 208.673 300.001ZM217.999 309.327C218.738 309.327 219.336 309.924 219.336 310.663C219.336 311.402 218.739 312 217.999 312C217.26 312 216.662 311.403 216.662 310.663C216.662 309.925 217.259 309.327 217.999 309.327ZM217.999 288C218.738 288 219.336 288.597 219.336 289.337C219.336 290.075 218.739 290.673 217.999 290.673C217.26 290.673 216.662 290.076 216.662 289.337C216.662 288.598 217.259 288 217.999 288ZM208.422 298.326L210.043 294.411C210.12 294.227 210.03 294.014 209.846 293.939C209.662 293.862 209.449 293.953 209.374 294.136L207.753 298.051C207.676 298.235 207.767 298.448 207.95 298.523C208.135 298.6 208.347 298.509 208.422 298.326ZM210.044 305.591L208.423 301.676C208.346 301.492 208.136 301.401 207.951 301.479C207.767 301.556 207.676 301.767 207.754 301.951L209.375 305.866C209.452 306.05 209.663 306.141 209.847 306.063C210.032 305.986 210.122 305.775 210.044 305.591ZM216.324 309.578L212.409 307.957C212.225 307.88 212.012 307.97 211.937 308.154C211.86 308.338 211.951 308.551 212.134 308.626L216.049 310.247C216.233 310.324 216.446 310.233 216.521 310.05C216.598 309.865 216.507 309.653 216.324 309.578ZM223.589 307.956L219.674 309.577C219.49 309.654 219.399 309.864 219.477 310.049C219.554 310.233 219.765 310.324 219.949 310.246L223.864 308.625C224.048 308.548 224.139 308.337 224.061 308.153C223.984 307.968 223.773 307.878 223.589 307.956ZM227.576 301.676L225.955 305.591C225.878 305.775 225.968 305.988 226.152 306.063C226.336 306.14 226.549 306.049 226.624 305.866L228.245 301.951C228.322 301.767 228.231 301.554 228.048 301.479C227.863 301.402 227.651 301.493 227.576 301.676ZM225.954 294.411L227.575 298.326C227.652 298.51 227.862 298.601 228.047 298.523C228.231 298.446 228.322 298.235 228.244 298.051L226.623 294.136C226.545 293.952 226.335 293.861 226.151 293.939C225.966 294.016 225.876 294.227 225.954 294.411ZM219.674 290.424L223.589 292.045C223.773 292.122 223.986 292.032 224.061 291.848C224.138 291.664 224.047 291.451 223.864 291.376L219.949 289.755C219.765 289.678 219.552 289.769 219.477 289.952C219.4 290.137 219.491 290.349 219.674 290.424ZM212.409 292.046L216.324 290.425C216.508 290.348 216.599 290.138 216.521 289.953C216.444 289.769 216.233 289.678 216.049 289.756L212.134 291.377C211.95 291.454 211.859 291.665 211.937 291.849C212.014 292.034 212.225 292.124 212.409 292.046ZM219.319 299.102C219.177 298.96 219.177 298.729 219.319 298.587C219.461 298.446 219.692 298.446 219.833 298.587L220.999 299.753C221.141 299.895 221.141 300.126 220.999 300.268L219.833 301.433C219.692 301.575 219.461 301.575 219.319 301.433C219.177 301.292 219.177 301.061 219.319 300.919L220.228 300.009L219.319 299.1V299.102ZM216.167 298.587C216.308 298.446 216.54 298.446 216.681 298.587C216.823 298.729 216.823 298.96 216.681 299.102L215.772 300.011L216.681 300.921C216.823 301.063 216.823 301.294 216.681 301.436C216.54 301.577 216.308 301.577 216.167 301.436L215.001 300.27C214.859 300.128 214.859 299.897 215.001 299.755L216.167 298.589V298.587ZM218.09 298.276C218.141 298.081 218.341 297.966 218.536 298.02C218.73 298.071 218.845 298.271 218.792 298.465L217.911 301.751C217.86 301.946 217.66 302.061 217.466 302.007C217.271 301.956 217.156 301.756 217.209 301.561L218.09 298.276Z" fill="white"/>
<path d="M328.22 76.7249L329.004 77.0031C329.08 76.6744 329.131 76.3203 329.131 75.9662C329.131 73.4626 326.956 71.4394 324.401 71.7429C323.466 69.4921 321.24 68 318.762 68C315.904 68 313.451 69.9979 312.819 72.7292H312.743C310.669 72.7292 309 74.3983 309 76.472C309 78.5458 310.669 80.2149 312.743 80.2149H314.791V81.7323L313.274 82.2887C313.021 82.3645 312.869 82.6174 312.869 82.8703V84.3624C312.111 84.6153 311.554 85.3487 311.554 86.1833C311.554 87.2454 312.414 88.1053 313.476 88.1053C314.538 88.1053 315.398 87.2454 315.398 86.1833C315.398 85.3234 314.842 84.6153 314.083 84.3624V83.3003L315.601 82.7439C315.854 82.668 316.005 82.4151 316.005 82.1622V80.2149H317.75V84.3371C316.992 84.59 316.435 85.3234 316.435 86.158C316.435 87.2202 317.295 88.08 318.357 88.08C319.419 88.08 320.279 87.2202 320.279 86.158C320.279 85.2981 319.723 84.59 318.964 84.3371V80.2402H321.164C321.114 80.1138 321.088 79.962 321.088 79.8103C321.088 79.2539 321.417 78.7734 321.923 78.5964L326.93 76.7502C327.36 76.5732 327.79 76.5732 328.22 76.7249Z" fill="white"/>
<path d="M332.848 84.5904L331.229 83.9834L328.119 85.1467C327.942 85.1973 327.765 85.2479 327.562 85.2479C327.385 85.2479 327.183 85.2226 327.006 85.1467L323.895 84.0087L322.277 84.6156C322.074 84.6915 322.074 84.9697 322.277 85.0456L327.309 86.8664C327.486 86.917 327.663 86.917 327.84 86.8664L332.848 85.0203C333.05 84.9444 333.05 84.6662 332.848 84.5904Z" fill="white"/>
<path d="M332.848 82.0864L331.229 81.4795L328.119 82.6175C327.942 82.6934 327.765 82.7187 327.562 82.7187C327.385 82.7187 327.183 82.6934 327.006 82.6175L323.895 81.4795L322.277 82.0864C322.074 82.1623 322.074 82.4405 322.277 82.5164L327.309 84.3625C327.486 84.4384 327.663 84.4384 327.84 84.3625L332.848 82.5164C333.05 82.4405 333.05 82.1623 332.848 82.0864Z" fill="white"/>
<path d="M322.302 80.0122L327.309 81.8584C327.487 81.909 327.664 81.909 327.841 81.8584L332.848 80.0122C333.05 79.9364 333.05 79.6582 332.848 79.5823L327.841 77.7362C327.664 77.6856 327.487 77.6856 327.309 77.7362L322.302 79.5823C322.1 79.6582 322.1 79.9364 322.302 80.0122Z" fill="white"/>
<g clip-path="url(#clip1_881_3343)">
<path d="M310.112 338.309V351.958C310.112 352.661 310.688 353.243 311.384 353.243H313.016C313.352 353.243 313.616 353.509 313.616 353.849C313.616 354.188 313.352 354.455 313.016 354.455H311.384C310.016 354.455 308.912 353.34 308.912 351.958V338.309C308.912 336.927 310.016 335.812 311.384 335.812H322.544L321.008 334.261C320.768 334.018 320.768 333.63 321.008 333.412C321.248 333.17 321.632 333.17 321.848 333.412L324.392 335.982C324.512 336.103 324.56 336.249 324.56 336.418C324.56 336.588 324.488 336.733 324.392 336.855L321.848 339.424C321.728 339.546 321.584 339.594 321.416 339.594C321.248 339.594 321.104 339.546 320.984 339.424C320.744 339.182 320.744 338.794 320.984 338.576L322.52 337.024H311.384C310.688 337.024 310.112 337.606 310.112 338.309ZM318.152 356.83C318.272 356.952 318.416 357 318.584 357C318.752 357 318.896 356.952 319.016 356.83C319.256 356.588 319.256 356.2 319.016 355.982L317.48 354.43H328.64C330.008 354.43 331.112 353.315 331.112 351.933V338.309C331.112 336.927 330.008 335.812 328.64 335.812H327.008C326.672 335.812 326.408 336.079 326.408 336.418C326.408 336.758 326.672 337.024 327.008 337.024H328.64C329.336 337.024 329.912 337.606 329.912 338.309V351.958C329.912 352.661 329.336 353.243 328.64 353.243H317.48L319.016 351.691C319.256 351.449 319.256 351.061 319.016 350.843C318.776 350.6 318.392 350.6 318.176 350.843L315.608 353.388C315.488 353.509 315.44 353.655 315.44 353.824C315.44 353.994 315.512 354.14 315.608 354.261L318.152 356.83Z" fill="white"/>
</g>
<path d="M558.112 206.183C559.142 205.587 559.142 204.612 558.112 204.016L538.393 192.531C537.363 191.935 535.684 191.935 534.6 192.531L514.772 203.962C513.743 204.558 513.743 205.533 514.772 206.129L534.492 217.56C535.521 218.156 537.201 218.156 538.284 217.56L558.112 206.183Z" fill="#00AED7"/>
<path d="M514.014 205.207C514.014 205.262 514.014 205.262 514.014 205.316V205.37C514.014 205.424 514.014 205.424 514.014 205.478C514.014 205.478 514.014 205.533 514.068 205.533C514.068 205.587 514.068 205.587 514.122 205.641C514.122 205.695 514.176 205.695 514.176 205.749C514.176 205.803 514.23 205.803 514.285 205.858C514.339 205.912 514.339 205.912 514.393 205.966C514.393 205.966 514.447 206.02 514.501 206.02L514.555 206.074C514.61 206.074 514.61 206.128 514.664 206.128C514.718 206.128 514.718 206.183 514.772 206.183L534.492 217.614L534.546 231.753L514.826 220.322C514.826 220.322 514.826 220.322 514.772 220.322L514.718 220.268C514.664 220.268 514.664 220.214 514.61 220.214C514.555 220.214 514.555 220.16 514.555 220.16C514.501 220.106 514.501 220.106 514.501 220.106C514.447 220.052 514.447 220.052 514.393 219.997L514.339 219.943C514.339 219.943 514.339 219.889 514.285 219.889C514.285 219.835 514.23 219.835 514.23 219.781C514.23 219.727 514.23 219.727 514.176 219.727V219.672C514.176 219.618 514.176 219.618 514.176 219.618V219.564C514.176 219.51 514.176 219.51 514.176 219.456V219.401L514.122 205.262C514.014 205.153 514.014 205.153 514.014 205.207Z" fill="white"/>
<path d="M558.112 206.183C558.654 205.858 558.871 205.479 558.871 205.1L558.925 219.239C558.925 219.619 558.654 220.052 558.167 220.323L538.338 231.754L538.284 217.614L558.112 206.183Z" fill="#80CAE3"/>
<path d="M558.112 205.045C559.142 204.449 559.142 203.474 558.112 202.878L538.393 191.447C537.363 190.851 535.684 190.851 534.6 191.447L514.772 202.878C513.743 203.474 513.743 204.449 514.772 205.045L534.492 216.476C535.521 217.072 537.201 217.072 538.284 216.476L558.112 205.045Z" fill="white"/>
<path d="M534.763 231.916C534.655 231.862 534.33 231.699 534.275 231.645V217.56C534.33 217.614 534.655 217.776 534.709 217.776C534.763 217.776 534.763 217.776 534.763 217.83C534.817 217.83 534.925 217.885 534.98 217.885C534.98 217.885 535.034 217.885 535.034 217.939C535.088 217.939 535.142 217.939 535.196 217.993C535.251 217.993 535.251 217.993 535.305 217.993C535.359 217.993 535.413 217.993 535.467 218.047C535.521 218.047 535.521 218.047 535.576 218.047C535.684 218.047 535.792 218.101 535.901 218.101C535.955 218.101 535.955 218.101 536.009 218.101C536.063 218.101 536.117 218.101 536.172 218.101C536.226 218.101 536.226 218.101 536.28 218.101C536.334 218.101 536.388 218.101 536.442 218.101C536.497 218.101 536.551 218.101 536.551 218.101C536.605 218.101 536.659 218.101 536.659 218.101C536.713 218.101 536.767 218.101 536.767 218.101C536.822 218.101 536.876 218.101 536.876 218.101C536.93 218.101 536.93 218.101 536.984 218.101C537.038 218.101 537.093 218.101 537.147 218.101C537.201 218.101 537.201 218.101 537.255 218.101C537.309 218.101 537.363 218.101 537.418 218.047C537.472 218.047 537.472 218.047 537.526 218.047C537.634 217.993 537.743 217.993 537.797 217.939C537.851 217.939 537.905 217.885 537.905 217.885C537.959 217.885 537.959 217.885 537.959 217.83C538.014 217.776 538.393 217.614 538.447 217.56V231.699C538.393 231.754 538.068 231.916 537.959 231.97C537.959 231.97 537.905 231.97 537.905 232.024C537.851 232.024 537.851 232.079 537.797 232.079C537.688 232.133 537.634 232.133 537.526 232.187H537.472C537.418 232.187 537.363 232.241 537.309 232.241H537.255H537.201C537.147 232.241 537.093 232.241 537.093 232.241H537.038C536.984 232.241 536.984 232.241 536.984 232.241C536.93 232.241 536.876 232.241 536.876 232.241H536.822H536.767C536.713 232.241 536.659 232.241 536.659 232.241C536.605 232.241 536.605 232.241 536.605 232.241H536.551C536.497 232.241 536.442 232.241 536.388 232.241C536.334 232.241 536.334 232.241 536.334 232.241H536.28C536.226 232.241 536.172 232.241 536.117 232.241H536.063C535.955 232.241 535.846 232.241 535.738 232.187C535.684 232.187 535.684 232.187 535.63 232.187C535.576 232.187 535.521 232.187 535.467 232.133C535.413 232.133 535.413 232.133 535.359 232.079C535.305 232.079 535.251 232.024 535.251 232.024C535.251 232.024 535.251 232.024 535.196 232.024H535.142C535.088 231.97 534.98 231.97 534.925 231.97C534.817 231.916 534.817 231.916 534.763 231.916Z" fill="url(#paint7_linear_881_3343)"/>
<path d="M543.377 218.102L544.352 217.506C544.677 217.343 544.894 217.452 544.948 217.831C544.948 218.21 544.677 218.643 544.352 218.806L543.377 219.402C543.052 219.564 542.781 219.456 542.781 219.077C542.835 218.752 543.052 218.318 543.377 218.102Z" fill="white"/>
<path d="M543.377 221.243L544.352 220.647C544.677 220.485 544.894 220.593 544.948 220.972C544.948 221.352 544.677 221.785 544.352 221.948L543.377 222.543C543.052 222.706 542.781 222.598 542.781 222.218C542.835 221.839 543.052 221.406 543.377 221.243Z" fill="#00AED7"/>
<path d="M543.377 224.44L544.352 223.844C544.677 223.681 544.894 223.789 544.948 224.169C544.948 224.548 544.677 224.981 544.352 225.144L543.377 225.74C543.052 225.902 542.781 225.794 542.781 225.415C542.835 225.09 543.052 224.656 543.377 224.44Z" fill="white"/>
<path d="M540.505 219.618L541.48 219.022C541.805 218.86 542.076 218.968 542.076 219.347C542.076 219.727 541.805 220.16 541.48 220.323L540.505 220.918C540.18 221.081 539.909 220.973 539.909 220.593C539.963 220.214 540.234 219.781 540.505 219.618Z" fill="#00AED7"/>
<path d="M540.505 222.706L541.48 222.11C541.805 221.948 542.076 222.056 542.076 222.435C542.076 222.815 541.805 223.248 541.48 223.41L540.505 224.006C540.18 224.169 539.909 224.061 539.909 223.681C539.963 223.356 540.234 222.923 540.505 222.706Z" fill="white"/>
<path d="M540.505 225.957L541.48 225.361C541.805 225.199 542.076 225.307 542.076 225.686C542.076 226.066 541.805 226.499 541.48 226.661L540.505 227.257C540.18 227.42 539.909 227.312 539.909 226.932C539.963 226.553 540.234 226.12 540.505 225.957Z" fill="#00AED7"/>
<path d="M547.061 216.368L557.083 210.571C557.408 210.409 557.679 210.517 557.679 210.896C557.679 211.275 557.409 211.709 557.138 211.871L547.115 217.668C546.79 217.831 546.573 217.722 546.573 217.343C546.519 216.964 546.79 216.531 547.061 216.368Z" fill="#00AED7"/>
<path d="M547.061 219.347L557.083 213.551C557.408 213.388 557.679 213.497 557.679 213.876C557.679 214.255 557.409 214.688 557.138 214.851L547.115 220.648C546.79 220.81 546.573 220.702 546.573 220.323C546.519 219.943 546.79 219.51 547.061 219.347Z" fill="#00AED7"/>
<path d="M547.061 222.327L557.083 216.53C557.408 216.368 557.679 216.476 557.679 216.855C557.679 217.234 557.409 217.668 557.138 217.83L547.115 223.627C546.79 223.79 546.573 223.681 546.573 223.302C546.519 222.923 546.79 222.489 547.061 222.327Z" fill="#00AED7"/>
<path d="M518.401 219.727L530.97 227.04V218.589L518.401 211.275V219.727Z" fill="#00AED7"/>
<path d="M535.521 209.65L527.232 204.828C526.961 204.665 526.799 204.449 526.799 204.232C526.799 204.015 526.961 203.799 527.232 203.636L535.575 198.814C536.063 198.544 536.875 198.544 537.309 198.814L545.598 203.636C545.869 203.799 546.031 204.015 546.031 204.232C546.031 204.449 545.869 204.665 545.598 204.828L537.255 209.65C537.038 209.812 536.713 209.866 536.388 209.866C536.063 209.866 535.792 209.758 535.521 209.65ZM535.738 199.085L527.395 203.907C527.232 204.015 527.124 204.124 527.124 204.232C527.124 204.34 527.232 204.449 527.341 204.557L535.629 209.379C536.009 209.595 536.659 209.595 537.038 209.379L545.381 204.557C545.544 204.449 545.652 204.34 545.652 204.232C545.652 204.124 545.544 204.015 545.435 203.907L537.146 199.085C536.984 198.977 536.713 198.923 536.442 198.923C536.225 198.923 535.955 198.977 535.738 199.085Z" fill="#80CAE3"/>
<path d="M541.156 204.449C541.373 204.34 541.373 204.124 541.156 203.961L536.876 201.469C536.659 201.361 536.28 201.361 536.063 201.469L531.784 203.961C531.567 204.069 531.567 204.286 531.784 204.449L536.063 206.941C536.28 207.049 536.659 207.049 536.876 206.941L541.156 204.449Z" fill="#DEA700"/>
<path d="M554.113 87.8751C555.222 87.2586 555.222 86.2106 554.113 85.5941L533.522 73.6342C532.474 73.0178 530.686 73.0178 529.577 73.6342L508.863 85.5941C507.753 86.2106 507.753 87.2586 508.863 87.8751L529.453 99.835C530.501 100.451 532.289 100.451 533.399 99.835L554.113 87.8751Z" fill="#00AED7"/>
<path d="M508.062 86.8263V86.888V86.9496C508.062 87.0113 508.062 87.0112 508.062 87.0112V87.0729C508.062 87.1345 508.062 87.1345 508.123 87.1345C508.123 87.1962 508.185 87.1962 508.185 87.2578C508.185 87.3195 508.247 87.3195 508.247 87.3811C508.308 87.4428 508.308 87.4428 508.37 87.5044L508.432 87.5661L508.493 87.6277C508.555 87.6277 508.555 87.6894 508.616 87.6894C508.616 87.6894 508.678 87.751 508.74 87.751L529.33 99.7109L529.392 114.445L508.801 102.485C508.801 102.485 508.801 102.485 508.74 102.485L508.678 102.423C508.616 102.423 508.616 102.362 508.555 102.362L508.493 102.3L508.432 102.238C508.37 102.177 508.37 102.177 508.308 102.115L508.247 102.054C508.247 102.054 508.247 102.054 508.185 101.992C508.185 101.93 508.123 101.93 508.123 101.869C508.123 101.869 508.123 101.807 508.062 101.807V101.745V101.684V101.622C508.062 101.56 508.062 101.56 508.062 101.56V101.499L508 86.7646C508 86.7646 508.062 86.7647 508.062 86.8263Z" fill="white"/>
<path d="M554.113 87.8745C554.668 87.5662 554.915 87.1347 554.915 86.7031L554.976 101.437C554.976 101.869 554.73 102.3 554.175 102.609L533.461 114.568L533.399 99.8343L554.113 87.8745Z" fill="#80CAE3"/>
<path d="M554.113 86.7032C555.222 86.0867 555.222 85.0387 554.113 84.4222L533.522 72.4624C532.474 71.8459 530.686 71.8459 529.577 72.4624L508.863 84.4222C507.753 85.0387 507.753 86.0867 508.863 86.7032L529.453 98.6631C530.501 99.2796 532.289 99.2796 533.399 98.6631L554.113 86.7032Z" fill="white"/>
<path d="M529.762 114.753C529.638 114.692 529.33 114.507 529.269 114.507V99.7726C529.33 99.8342 529.638 99.9575 529.762 100.019C529.762 100.019 529.823 100.019 529.823 100.081C529.885 100.081 529.947 100.142 530.07 100.142H530.132C530.193 100.142 530.255 100.142 530.255 100.204C530.317 100.204 530.317 100.204 530.378 100.204C530.44 100.204 530.502 100.204 530.502 100.266C530.563 100.266 530.563 100.266 530.625 100.266C530.748 100.266 530.81 100.327 530.933 100.327C530.995 100.327 530.995 100.327 531.056 100.327C531.118 100.327 531.18 100.327 531.241 100.327C531.303 100.327 531.303 100.327 531.365 100.327C531.426 100.327 531.488 100.327 531.488 100.327C531.55 100.327 531.55 100.327 531.611 100.327C531.673 100.327 531.673 100.327 531.735 100.327C531.796 100.327 531.796 100.327 531.858 100.327C531.919 100.327 531.981 100.327 531.981 100.327C532.043 100.327 532.043 100.327 532.104 100.327C532.166 100.327 532.228 100.327 532.228 100.327C532.289 100.327 532.289 100.327 532.351 100.327C532.413 100.327 532.474 100.327 532.536 100.266C532.598 100.266 532.598 100.266 532.659 100.266C532.783 100.204 532.844 100.204 532.967 100.142C533.029 100.142 533.091 100.081 533.091 100.081C533.091 100.081 533.152 100.081 533.152 100.019C533.214 99.9575 533.584 99.7726 533.646 99.7109V114.507C533.584 114.568 533.214 114.753 533.152 114.753H533.091C533.029 114.753 533.029 114.815 532.967 114.815C532.844 114.815 532.783 114.877 532.659 114.938H532.598C532.536 114.938 532.474 114.938 532.413 115C532.413 115 532.413 115 532.351 115H532.289C532.228 115 532.166 115 532.166 115H532.104H532.043C531.981 115 531.981 115 531.919 115H531.858H531.796C531.735 115 531.735 115 531.673 115H531.611H531.55C531.488 115 531.426 115 531.426 115H531.365C531.365 115 531.365 115 531.303 115C531.241 115 531.18 115 531.118 115H531.056C530.933 115 530.81 115 530.748 114.938C530.686 114.938 530.686 114.938 530.625 114.938C530.563 114.938 530.502 114.938 530.502 114.938C530.44 114.938 530.44 114.938 530.378 114.938C530.317 114.938 530.255 114.938 530.255 114.877C530.255 114.877 530.255 114.877 530.193 114.877H530.132C530.07 114.877 530.008 114.815 529.947 114.815C529.762 114.753 529.762 114.753 529.762 114.753Z" fill="url(#paint8_linear_881_3343)"/>
<path d="M538.701 100.328L539.749 99.7112C540.058 99.5262 540.366 99.6495 540.366 100.081C540.366 100.451 540.119 100.944 539.749 101.129L538.701 101.746C538.393 101.931 538.085 101.807 538.085 101.437C538.147 101.006 538.393 100.513 538.701 100.328Z" fill="white"/>
<path d="M538.701 103.595L539.749 102.979C540.058 102.794 540.366 102.917 540.366 103.349C540.366 103.719 540.119 104.212 539.749 104.397L538.701 105.013C538.393 105.198 538.085 105.075 538.085 104.643C538.147 104.212 538.393 103.78 538.701 103.595Z" fill="#00AED7"/>
<path d="M538.701 106.986L539.749 106.369C540.058 106.184 540.366 106.308 540.366 106.739C540.366 107.109 540.119 107.602 539.749 107.787L538.701 108.404C538.393 108.589 538.085 108.465 538.085 108.034C538.147 107.602 538.393 107.171 538.701 106.986Z" fill="white"/>
<path d="M535.741 101.869L536.79 101.252C537.098 101.067 537.406 101.191 537.406 101.622C537.406 101.992 537.159 102.485 536.79 102.67L535.741 103.287C535.433 103.472 535.125 103.348 535.125 102.978C535.125 102.547 535.433 102.115 535.741 101.869Z" fill="#00AED7"/>
<path d="M535.741 105.136L536.79 104.52C537.098 104.335 537.406 104.458 537.406 104.828C537.406 105.198 537.159 105.691 536.79 105.876L535.741 106.492C535.433 106.677 535.125 106.554 535.125 106.122C535.125 105.814 535.433 105.321 535.741 105.136Z" fill="white"/>
<path d="M535.741 108.527L536.79 107.91C537.098 107.725 537.406 107.849 537.406 108.218C537.406 108.588 537.159 109.081 536.79 109.266L535.741 109.883C535.433 110.068 535.125 109.945 535.125 109.575C535.125 109.143 535.433 108.712 535.741 108.527Z" fill="#00AED7"/>
<path d="M542.584 98.4783L553.065 92.4367C553.373 92.2518 553.681 92.3751 553.681 92.8066C553.681 93.1765 553.434 93.6697 553.065 93.8547L542.584 99.8962C542.276 100.081 541.968 99.9579 541.968 99.5263C541.968 99.1565 542.276 98.6633 542.584 98.4783Z" fill="#00AED7"/>
<path d="M542.584 101.623L553.065 95.5813C553.373 95.3963 553.681 95.5196 553.681 95.9512C553.681 96.321 553.434 96.7526 553.065 96.9992L542.584 103.041C542.276 103.226 541.968 103.041 541.968 102.671C541.968 102.239 542.276 101.808 542.584 101.623Z" fill="#00AED7"/>
<path d="M542.584 104.705L553.065 98.6631C553.373 98.4781 553.681 98.6014 553.681 98.9713C553.681 99.3412 553.434 99.8344 553.065 100.019L542.584 106.061C542.276 106.246 541.968 106.123 541.968 105.753C541.968 105.383 542.276 104.951 542.584 104.705Z" fill="#00AED7"/>
<path d="M512.624 102.053L525.755 109.698V100.82L512.624 93.1758V102.053Z" fill="#00AED7"/>
<path d="M530.502 91.4505L521.871 86.3953C521.624 86.2104 521.439 86.0254 521.439 85.7788C521.439 85.5322 521.563 85.2856 521.871 85.1623L530.563 80.1072C531.057 79.7989 531.92 79.7989 532.413 80.1072L541.044 85.1623C541.29 85.3473 541.475 85.5322 541.475 85.7788C541.475 86.0254 541.352 86.272 541.044 86.3953L532.351 91.3889C532.105 91.5122 531.796 91.6355 531.427 91.6355C531.118 91.6971 530.748 91.6355 530.502 91.4505ZM530.748 80.477L522.056 85.5322C521.871 85.5939 521.809 85.7172 521.809 85.8405C521.809 85.9638 521.871 86.0871 522.056 86.1487L530.687 91.2039C531.057 91.4505 531.796 91.4505 532.166 91.2039L540.859 86.1487C541.044 86.0254 541.105 85.9638 541.105 85.8405C541.105 85.7172 540.982 85.5939 540.859 85.5322L532.228 80.477C532.043 80.3537 531.796 80.2921 531.488 80.2921C531.242 80.2921 530.933 80.3537 530.748 80.477Z" fill="#80CAE3"/>
<path d="M536.358 86.087C536.605 85.9637 536.605 85.7171 536.358 85.5938L531.919 83.0046C531.673 82.8813 531.303 82.8813 531.056 83.0046L526.556 85.5938C526.309 85.7171 526.309 85.9637 526.556 86.087L530.995 88.6763C531.241 88.7996 531.611 88.7996 531.858 88.6763L536.358 86.087Z" fill="#DEA700"/>
<path d="M474.675 -6.47462C475.975 -7.17462 475.975 -8.37462 474.675 -9.17462L450.675 -23.0746C449.375 -23.7746 447.375 -23.7746 446.075 -23.0746L421.975 -9.17462C420.675 -8.47462 420.675 -7.27462 421.975 -6.47462L445.975 7.42539C447.275 8.12539 449.275 8.12539 450.575 7.42539L474.675 -6.47462Z" fill="#00AED7"/>
<path d="M421.075 -7.675V-7.57499V-7.475V-7.375V-7.27499V-7.175L421.175 -7.07499L421.275 -6.975L421.375 -6.875L421.475 -6.77499C421.475 -6.77499 421.575 -6.775 421.575 -6.675L421.675 -6.57499L421.775 -6.475L445.775 7.42501V24.625L421.775 10.725C421.775 10.725 421.675 10.725 421.675 10.625L421.575 10.525C421.575 10.525 421.475 10.525 421.475 10.425L421.375 10.325L421.275 10.225C421.275 10.225 421.275 10.225 421.175 10.125C421.175 10.125 421.175 10.125 421.175 10.025L421.075 9.92501V9.825C421.075 9.825 421.075 9.82501 421.075 9.72501V9.625C421.075 9.625 421.075 9.625 421.075 9.525V9.42501C421.075 9.42501 421.075 9.425 421.075 9.325V-7.675C421.075 -7.775 421.075 -7.775 421.075 -7.675Z" fill="white"/>
<path d="M474.675 -6.4754C475.275 -6.8754 475.675 -7.37539 475.675 -7.77539V9.42461C475.675 9.92461 475.375 10.4246 474.675 10.7246L450.575 24.6246V7.42461L474.675 -6.4754Z" fill="#80CAE3"/>
<path d="M474.675 -7.87499C475.975 -8.575 475.975 -9.77499 474.675 -10.575L450.675 -24.475C449.375 -25.175 447.375 -25.175 446.075 -24.475L421.975 -10.575C420.675 -9.87499 420.675 -8.67499 421.975 -7.87499L445.975 6.025C447.275 6.725 449.275 6.725 450.575 6.025L474.675 -7.87499Z" fill="white"/>
<path d="M446.375 24.8248C446.275 24.8248 445.875 24.5248 445.775 24.5248V7.4248C445.875 7.5248 446.175 7.62481 446.275 7.72481H446.375C446.475 7.72481 446.575 7.8248 446.675 7.8248H446.775C446.875 7.8248 446.875 7.8248 446.975 7.9248H447.075C447.175 7.9248 447.175 7.9248 447.275 7.9248H447.375C447.475 7.9248 447.575 7.9248 447.775 8.0248H447.875C447.975 8.0248 447.975 8.0248 448.075 8.0248C448.175 8.0248 448.175 8.0248 448.175 8.0248C448.275 8.0248 448.275 8.0248 448.375 8.0248C448.475 8.0248 448.475 8.0248 448.575 8.0248C448.675 8.0248 448.675 8.0248 448.775 8.0248C448.875 8.0248 448.875 8.0248 448.975 8.0248C449.075 8.0248 449.075 8.0248 449.175 8.0248H449.275C449.375 8.0248 449.375 8.0248 449.475 8.0248H449.575C449.675 8.0248 449.675 8.0248 449.775 7.9248H449.875C449.975 7.9248 450.075 7.8248 450.175 7.8248C450.275 7.8248 450.275 7.82481 450.375 7.72481H450.475C450.575 7.72481 450.975 7.4248 451.075 7.4248V24.6248C450.975 24.6248 450.575 24.9248 450.475 24.9248H450.375C450.375 24.9248 450.275 24.9248 450.275 25.0248C450.175 25.0248 450.075 25.1248 449.975 25.1248H449.875C449.775 25.1248 449.775 25.1248 449.675 25.1248C449.675 25.1248 449.675 25.1248 449.575 25.1248H449.475C449.375 25.1248 449.375 25.1248 449.275 25.1248H449.175H449.075C448.975 25.1248 448.975 25.1248 448.875 25.1248H448.775H448.675C448.575 25.1248 448.575 25.1248 448.475 25.1248H448.375C448.375 25.1248 448.375 25.1248 448.275 25.1248C448.175 25.1248 448.175 25.1248 448.075 25.1248H447.975C447.975 25.1248 447.975 25.1248 447.875 25.1248C447.775 25.1248 447.775 25.1248 447.675 25.1248H447.575C447.475 25.1248 447.275 25.1248 447.175 25.0248H447.075C446.975 25.0248 446.975 25.0248 446.875 25.0248H446.775C446.675 25.0248 446.675 25.0248 446.575 25.0248C446.575 25.0248 446.575 25.0248 446.475 25.0248C446.575 24.9248 446.575 24.8248 446.375 24.8248Z" fill="url(#paint9_linear_881_3343)"/>
<path d="M456.875 8.02455L458.075 7.32455C458.475 7.12455 458.775 7.32456 458.775 7.72456C458.775 8.12456 458.475 8.72456 458.075 8.92456L456.875 9.62456C456.475 9.82456 456.175 9.62456 456.175 9.22456C456.175 8.82456 456.475 8.22455 456.875 8.02455Z" fill="white"/>
<path d="M456.875 11.8253L458.075 11.1253C458.475 10.9253 458.775 11.1253 458.775 11.5253C458.775 11.9253 458.475 12.5253 458.075 12.7253L456.875 13.4253C456.475 13.6253 456.175 13.5253 456.175 13.0253C456.175 12.5253 456.475 12.0253 456.875 11.8253Z" fill="#00AED7"/>
<path d="M456.875 15.7248L458.075 15.0247C458.475 14.8247 458.775 15.0248 458.775 15.4248C458.775 15.8248 458.475 16.4248 458.075 16.6248L456.875 17.3248C456.475 17.5248 456.175 17.3248 456.175 16.9248C456.175 16.5248 456.475 15.9248 456.875 15.7248Z" fill="white"/>
<path d="M453.375 9.82533L454.575 9.12534C454.975 8.92534 455.275 9.12533 455.275 9.52533C455.275 9.92533 454.975 10.5253 454.575 10.7253L453.375 11.4253C452.975 11.6253 452.675 11.4253 452.675 11.0253C452.675 10.6253 452.975 10.0253 453.375 9.82533Z" fill="#00AED7"/>
<path d="M453.375 13.6247L454.575 12.9247C454.975 12.7247 455.275 12.8247 455.275 13.3247C455.275 13.7247 454.975 14.3247 454.575 14.5247L453.375 15.2247C452.975 15.4247 452.675 15.2247 452.675 14.8247C452.675 14.4247 452.975 13.8247 453.375 13.6247Z" fill="white"/>
<path d="M453.375 17.5246L454.575 16.8246C454.975 16.6246 455.275 16.8246 455.275 17.2246C455.275 17.6246 454.975 18.2246 454.575 18.4246L453.375 19.1246C452.975 19.3246 452.675 19.1246 452.675 18.7246C452.675 18.3246 452.975 17.8246 453.375 17.5246Z" fill="#00AED7"/>
<path d="M461.275 5.92514L473.475 -1.07486C473.875 -1.27486 474.175 -1.07486 474.175 -0.674864C474.175 -0.274864 473.875 0.325132 473.475 0.525133L461.275 7.52513C460.875 7.72513 460.575 7.52514 460.575 7.12514C460.675 6.62514 460.975 6.12514 461.275 5.92514Z" fill="#00AED7"/>
<path d="M461.275 9.52475L473.475 2.52475C473.875 2.32475 474.175 2.52476 474.175 2.92476C474.175 3.32476 473.875 3.92475 473.475 4.12475L461.275 11.1248C460.875 11.3248 460.575 11.1248 460.575 10.7248C460.675 10.3248 460.975 9.72475 461.275 9.52475Z" fill="#00AED7"/>
<path d="M461.275 13.1253L473.475 6.12534C473.875 5.92534 474.175 6.12533 474.175 6.52533C474.175 6.92533 473.875 7.52534 473.475 7.72534L461.275 14.7253C460.875 14.9253 460.575 14.7253 460.575 14.3253C460.675 13.9253 460.975 13.3253 461.275 13.1253Z" fill="#00AED7"/>
<path d="M426.475 10.0246L441.775 18.9246V8.6246L426.475 -0.275391V10.0246Z" fill="#00AED7"/>
<path d="M108.439 211.5L116.839 233.6L109.339 242.7L101.839 251.8L90.2393 249.9L78.6393 248L70.2393 226L77.7393 216.8L85.2393 207.7L96.8393 209.6L108.439 211.5Z" fill="#0098C3"/>
<path d="M116.739 202.4C116.739 202.5 116.739 202.5 116.739 202.4L93.6392 230.7C93.4392 231 93.0392 231.1 92.7392 231.1L56.8392 225.2C56.4392 225.1 56.2392 224.9 56.0392 224.6C55.9392 224.3 56.0392 223.9 56.2392 223.6L79.2392 195.4C79.4392 195.1 79.8392 195 80.1392 195L116.039 200.9C116.439 201 116.639 201.2 116.839 201.5C116.939 201.8 116.939 202.2 116.739 202.4ZM92.4392 228.9L114.039 202.5L80.4392 197L58.8392 223.4L92.4392 228.9Z" fill="white"/>
<path d="M129.639 236.5C129.539 236.5 129.539 236.5 129.639 236.5L106.539 264.7C106.439 264.8 106.439 264.8 106.339 264.9C106.239 265 106.139 265 106.039 265C105.939 265 105.739 265 105.639 265C105.539 265 105.339 264.9 105.239 264.8C105.139 264.7 105.039 264.7 105.039 264.6C104.939 264.5 104.939 264.4 104.939 264.4L92.2388 230.9L58.6388 225.4L70.9388 257.8C71.1388 258.3 70.8388 258.9 70.3388 259.1C69.8388 259.3 69.2388 259 69.0388 258.5L56.1388 224.5C56.0388 224.2 56.1388 223.8 56.3388 223.5C56.5388 223.2 56.9388 223.1 57.2388 223.1L92.6388 228.9L115.339 201.2C115.539 200.9 115.939 200.8 116.239 200.8C116.639 200.9 116.839 201.1 117.039 201.4L129.939 235.4C129.839 235.9 129.839 236.2 129.639 236.5ZM106.039 262.1L127.639 235.7L115.539 203.8L93.9388 230.2L106.039 262.1Z" fill="white"/>
<path d="M106.54 264.7C106.34 265 105.94 265.2 105.54 265.1L69.6396 259.2C69.1396 259.1 68.7396 258.6 68.8396 258.1C68.9396 257.6 69.4397 257.2 69.9397 257.3L105.84 263.2C106.34 263.3 106.74 263.8 106.64 264.3C106.74 264.4 106.64 264.5 106.54 264.7Z" fill="white"/>
<path d="M161.466 352L166.666 365L162.266 370.5L157.966 375.9L150.966 374.9L144.066 373.9L138.966 360.9L143.266 355.4L147.666 349.9L154.566 350.9L161.466 352Z" fill="#0098C3"/>
<path d="M152.766 364C152.566 364.1 152.466 364.1 152.266 364.1L130.866 360.9C130.466 360.8 130.166 360.6 130.066 360.3C129.966 360 129.966 359.6 130.166 359.3L143.566 342.4C143.766 342.1 144.166 342 144.466 342L165.866 345.2C166.266 345.3 166.566 345.5 166.666 345.8C166.766 346.1 166.766 346.5 166.566 346.8L153.166 363.7C153.066 363.8 152.966 363.9 152.766 364ZM132.866 359.2L151.966 362L163.966 346.9L144.866 344.1L132.866 359.2Z" fill="white"/>
<path d="M160.666 384.1H160.566C160.466 384.1 160.266 384.1 160.166 384.1C160.066 384.1 159.866 384 159.766 384C159.666 383.9 159.566 383.9 159.466 383.8C159.366 383.7 159.366 383.6 159.366 383.6L151.666 364.1L132.566 361.3L139.866 379.8C140.066 380.3 139.866 380.9 139.266 381.1C138.766 381.3 138.166 381.1 137.966 380.5L130.066 360.4C129.966 360.1 129.966 359.7 130.166 359.4C130.366 359.1 130.766 359 131.066 359L151.866 362.1L164.966 345.7C165.166 345.4 165.566 345.3 165.866 345.3C166.266 345.4 166.566 345.6 166.666 345.9L174.566 366C174.666 366.3 174.666 366.7 174.466 367L161.066 383.9C160.966 384 160.966 384 160.866 384.1C160.866 384 160.766 384.1 160.666 384.1ZM153.566 363.2L160.666 381.1L172.666 366L165.566 348.1L153.566 363.2Z" fill="white"/>
<path d="M160.666 384.1C160.466 384.2 160.366 384.2 160.166 384.2L138.766 381C138.266 380.9 137.866 380.4 137.966 379.9C138.066 379.4 138.566 379 139.066 379.1L160.466 382.3C160.966 382.4 161.366 382.9 161.266 383.4C161.266 383.7 160.966 384 160.666 384.1Z" fill="white"/>
<path d="M308.466 409L313.666 422L309.266 427.5L304.966 432.9L297.966 431.9L291.066 430.9L285.966 417.9L290.266 412.4L294.666 406.9L301.566 407.9L308.466 409Z" fill="#0098C3"/>
<path d="M299.766 421C299.566 421.1 299.466 421.1 299.266 421.1L277.866 417.9C277.466 417.8 277.166 417.6 277.066 417.3C276.966 417 276.966 416.6 277.166 416.3L290.566 399.4C290.766 399.1 291.166 399 291.466 399L312.866 402.2C313.266 402.3 313.566 402.5 313.666 402.8C313.766 403.1 313.766 403.5 313.566 403.8L300.166 420.7C300.066 420.8 299.966 420.9 299.766 421ZM279.866 416.2L298.966 419L310.966 403.9L291.866 401.1L279.866 416.2Z" fill="white"/>
<path d="M307.666 441.1H307.566C307.466 441.1 307.266 441.1 307.166 441.1C307.066 441.1 306.866 441 306.766 441C306.666 440.9 306.566 440.9 306.466 440.8C306.366 440.7 306.366 440.6 306.366 440.6L298.666 421.1L279.566 418.3L286.866 436.8C287.066 437.3 286.866 437.9 286.266 438.1C285.766 438.3 285.166 438.1 284.966 437.5L277.066 417.4C276.966 417.1 276.966 416.7 277.166 416.4C277.366 416.1 277.766 416 278.066 416L298.866 419.1L311.966 402.7C312.166 402.4 312.566 402.3 312.866 402.3C313.266 402.4 313.566 402.6 313.666 402.9L321.566 423C321.666 423.3 321.666 423.7 321.466 424L308.066 440.9C307.966 441 307.966 441 307.866 441.1C307.866 441 307.766 441.1 307.666 441.1ZM300.566 420.2L307.666 438.1L319.666 423L312.566 405.1L300.566 420.2Z" fill="white"/>
</g>
<defs>
<radialGradient id="paint0_radial_881_3343" cx="0" cy="0" r="1" gradientUnits="userSpaceOnUse" gradientTransform="translate(633.738 5.33621) scale(394.76 407.095)">
<stop stop-color="#007099"/>
<stop offset="0.0270484" stop-color="#026D95"/>
<stop offset="0.3173" stop-color="#13516F"/>
<stop offset="0.5856" stop-color="#203D54"/>
<stop offset="0.8217" stop-color="#273143"/>
<stop offset="1" stop-color="#2A2D3D"/>
</radialGradient>
<linearGradient id="paint1_linear_881_3343" x1="199.017" y1="299.509" x2="235.986" y2="299.509" gradientUnits="userSpaceOnUse">
<stop offset="5.32779e-07" stop-color="#005675"/>
<stop offset="1" stop-color="#007099"/>
</linearGradient>
<linearGradient id="paint2_linear_881_3343" x1="199.017" y1="124.509" x2="235.986" y2="124.509" gradientUnits="userSpaceOnUse">
<stop offset="5.32779e-07" stop-color="#005675"/>
<stop offset="1" stop-color="#007099"/>
</linearGradient>
<linearGradient id="paint3_linear_881_3343" x1="407.017" y1="299.509" x2="443.986" y2="299.509" gradientUnits="userSpaceOnUse">
<stop offset="5.32779e-07" stop-color="#005675"/>
<stop offset="1" stop-color="#007099"/>
</linearGradient>
<linearGradient id="paint4_linear_881_3343" x1="407.017" y1="124.509" x2="443.986" y2="124.509" gradientUnits="userSpaceOnUse">
<stop offset="5.32779e-07" stop-color="#005675"/>
<stop offset="1" stop-color="#007099"/>
</linearGradient>
<linearGradient id="paint5_linear_881_3343" x1="302.017" y1="344.509" x2="338.986" y2="344.509" gradientUnits="userSpaceOnUse">
<stop offset="5.32779e-07" stop-color="#005675"/>
<stop offset="1" stop-color="#007099"/>
</linearGradient>
<linearGradient id="paint6_linear_881_3343" x1="302.017" y1="78.5086" x2="338.986" y2="78.5086" gradientUnits="userSpaceOnUse">
<stop offset="5.32779e-07" stop-color="#005675"/>
<stop offset="1" stop-color="#007099"/>
</linearGradient>
<linearGradient id="paint7_linear_881_3343" x1="534.292" y1="224.843" x2="538.563" y2="224.843" gradientUnits="userSpaceOnUse">
<stop stop-color="white"/>
<stop offset="1" stop-color="#80CAE3"/>
</linearGradient>
<linearGradient id="paint8_linear_881_3343" x1="529.222" y1="107.362" x2="533.684" y2="107.362" gradientUnits="userSpaceOnUse">
<stop stop-color="white"/>
<stop offset="1" stop-color="#80CAE3"/>
</linearGradient>
<linearGradient id="paint9_linear_881_3343" x1="445.772" y1="16.2096" x2="450.965" y2="16.2096" gradientUnits="userSpaceOnUse">
<stop stop-color="white"/>
<stop offset="1" stop-color="#80CAE3"/>
</linearGradient>
<clipPath id="clip0_881_3343">
<rect width="640" height="420" fill="white"/>
</clipPath>
<clipPath id="clip1_881_3343">
<rect width="24" height="24" fill="white" transform="translate(308 333)"/>
</clipPath>
</defs>
</svg>
